STARTFONT 2.3
FONT -FontForge-Fontdiner Swanky-Book-R-Normal--20-200-72-72-P-126-ISO10646-1
SIZE 20 72 72  4
FONTBOUNDINGBOX 29 31 -5 -10
COMMENT "Generated by fontforge, http://fontforge.sourceforge.net"
COMMENT "Copyright (c) 2010 by Font Diner, Inc. All rights reserved."
STARTPROPERTIES 40
FOUNDRY "FontForge"
FAMILY_NAME "Fontdiner Swanky"
WEIGHT_NAME "Book"
SLANT "R"
SETWIDTH_NAME "Normal"
ADD_STYLE_NAME ""
PIXEL_SIZE 20
POINT_SIZE 200
RESOLUTION_X 72
RESOLUTION_Y 72
SPACING "P"
AVERAGE_WIDTH 126
CHARSET_REGISTRY "ISO10646"
CHARSET_ENCODING "1"
FONTNAME_REGISTRY ""
CHARSET_COLLECTIONS "ISO10646-1"
BITS_PER_PIXEL 4
FONT_NAME "FontdinerSwanky-Regular"
FACE_NAME "Fontdiner Swanky Regular"
COPYRIGHT "Copyright (c) 2010 by Font Diner, Inc. All rights reserved."
FONT_VERSION "1.001"
FONT_ASCENT 16
FONT_DESCENT 4
UNDERLINE_POSITION -2
UNDERLINE_THICKNESS 1
X_HEIGHT 11
CAP_HEIGHT 12
RAW_ASCENT 799
RAW_DESCENT 200
NORM_SPACE 6
RELATIVE_WEIGHT 40
RELATIVE_SETWIDTH 50
SUPERSCRIPT_X 0
SUPERSCRIPT_Y 9
SUPERSCRIPT_SIZE 12
SUBSCRIPT_X 0
SUBSCRIPT_Y 2
SUBSCRIPT_SIZE 12
AVG_LOWERCASE_WIDTH 125
AVG_UPPERCASE_WIDTH 155
ENDPROPERTIES
CHARS 231
STARTCHAR space
ENCODING 32
SWIDTH 320 0
DWIDTH 6 0
BBX 1 1 0 0
BITMAP
00
ENDCHAR
STARTCHAR exclam
ENCODING 33
SWIDTH 305 0
DWIDTH 6 0
BBX 6 18 0 -1
BITMAP
01DCA9
02FFFE
02FFFB
03FFF8
04FFF5
04FFF3
05FFF0
05FFC0
06FF90
07FF70
07FF40
08FF10
09FE00
014400
3BC500
BFFE00
6FFB00
012000
ENDCHAR
STARTCHAR quotedbl
ENCODING 34
SWIDTH 369 0
DWIDTH 7 0
BBX 8 7 0 7
BITMAP
33313331
BFF4EFF2
AFF3DFF0
9FF2BFE0
7FF0AFD0
6FE09FB0
00100000
ENDCHAR
STARTCHAR numbersign
ENCODING 35
SWIDTH 702 0
DWIDTH 14 0
BBX 14 14 0 0
BITMAP
00048900089100
0009FE000FF100
011AFD002FF000
4FFFFFEEEFFCC9
6FFFFFFFFFFFF9
487EFB66BFD552
000DF7009FC000
000EF500AFA000
588FFB99DFDAA3
CFFFFFFFFFFFF3
89AFFBBBFFEDD1
003FE001FF7000
004FD002FF6000
00274001652000
ENDCHAR
STARTCHAR dollar
ENCODING 36
SWIDTH 545 0
DWIDTH 11 0
BBX 11 18 0 -3
BITMAP
000499300000
0005FF400000
0004FF200110
018DFFB50810
1DFEBCFFAE00
9FF2003CFE00
CFF70000AE00
9FFFD8300A00
1CFFFFFC5100
119FFFFFFA00
46017CFFFF70
6E40003CFFA0
7FF81007FF90
9EFFFCDFFD20
A328EFEB6100
3000CF900000
0000DFB00000
000077500000
ENDCHAR
STARTCHAR percent
ENCODING 37
SWIDTH 657 0
DWIDTH 13 0
BBX 14 17 0 -1
BITMAP
00000000262000
038960008FF500
4FFEFA00EFE100
AF71FF15FF8000
BF61FF1BFF2000
5FEDFA2FFA0000
04AB718FF30000
000000EFC00000
000005FF500000
00000BFD000000
00002FF7013100
00008FE17FFF90
0000EF93FE6DF5
0005FF26FA09F8
000BFB03FE7DF4
002FF4007EFF80
0028B000012100
ENDCHAR
STARTCHAR ampersand
ENCODING 38
SWIDTH 668 0
DWIDTH 13 0
BBX 16 18 0 -3
BITMAP
0006CEDA20000000
00BFD6BFD1000000
05FF301EF7000000
05FF500CF8000000
02FFE11EF3000000
008FFCBF70000000
000BFFF700100000
001AFFF600800000
01CFCFFF40980000
0AFD18FFE29F4000
3FFA00BFFCEEE200
5FFD002EFFF21223
4FFFB439FFFABEA1
0AFFFFFFEFFFE500
018DFEB51FFA1000
000000008E500000
00000002A2000000
0000000200000000
ENDCHAR
STARTCHAR quotesingle
ENCODING 39
SWIDTH 177 0
DWIDTH 4 0
BBX 4 6 0 8
BITMAP
4552
BFF4
AFF3
8FF1
7FF0
5DC0
ENDCHAR
STARTCHAR parenleft
ENCODING 40
SWIDTH 384 0
DWIDTH 8 0
BBX 7 20 1 -3
BITMAP
00000540
0005DA00
008FD100
07FF4000
1EFC0000
6FF80000
AFF30000
DFF10000
EFF00000
FFE00000
FFF00000
EFF10000
CFF40000
9FF80000
4FFC0000
0CFF3000
04FFB000
006FF300
0004DD10
00000660
ENDCHAR
STARTCHAR parenright
ENCODING 41
SWIDTH 375 0
DWIDTH 8 0
BBX 7 20 0 -3
BITMAP
63000000
1DB30000
03FE5000
009FE300
002FFB00
000CFF20
0008FF60
0005FF80
0004FFA0
0004FFA0
0004FFA0
0006FF90
0008FF70
000CFF40
002FFE00
008FF800
01EFD100
08FD2000
3FB20000
84000000
ENDCHAR
STARTCHAR asterisk
ENCODING 42
SWIDTH 640 0
DWIDTH 13 0
BBX 13 13 0 0
BITMAP
00066005400000
01EFE10BF91000
008FF62FFF9000
000CFD7FFC1000
4412EFEFE20000
9FFDEFFFBABDB0
AFFFFFFFFFFFA0
BFDBDFFFB9BD80
2104FFEFE20000
001DFB8FFC1000
00BFF43FFF8000
008FC00DD60000
00045003000000
ENDCHAR
STARTCHAR plus
ENCODING 43
SWIDTH 607 0
DWIDTH 12 0
BBX 12 13 0 0
BITMAP
000047640000
00008FFA0000
00008FFA0000
00007FF90000
5766AFFA2210
BFFFFFFFFFFE
BFFFFFFFFFFD
9BBACFFB8876
00006FF60000
00005FF50000
00005FF50000
00004FF40000
000013410000
ENDCHAR
STARTCHAR comma
ENCODING 44
SWIDTH 226 0
DWIDTH 5 0
BBX 5 7 0 -5
BITMAP
046100
7FFE10
BFFF40
3BFF20
04F900
098000
010000
ENDCHAR
STARTCHAR hyphen
ENCODING 45
SWIDTH 549 0
DWIDTH 11 0
BBX 9 4 1 5
BITMAP
7A98765430
BFFFFFFFC0
CFFFFFFFB0
ACBAA99850
ENDCHAR
STARTCHAR period
ENCODING 46
SWIDTH 226 0
DWIDTH 5 0
BBX 5 4 0 -2
BITMAP
179400
9FFF20
AFFF30
19B600
ENDCHAR
STARTCHAR slash
ENCODING 47
SWIDTH 600 0
DWIDTH 12 0
BBX 14 20 -1 -2
BITMAP
00000000005200
0000000001EF70
0000000009FFF6
000000003FFFC0
00000000BFFF40
00000005FFF900
0000001DFFE100
0000008FFF6000
000002EFFB0000
00000AFFF20000
00004FFF800000
0000CFFD000000
0006FFF4000000
001EFFA0000000
008FFE10000000
02FFF600000000
0BFFC000000000
4FFF3000000000
2BF90000000000
00410000000000
ENDCHAR
STARTCHAR zero
ENCODING 48
SWIDTH 740 0
DWIDTH 15 0
BBX 15 13 0 0
BITMAP
0000268996200000
002BFFFFFFF91000
03EFFE857EFFC100
0CFFD20002EFF800
4FFF4000007FFF10
8FFD0000002FFF40
9FFB0000001FFF50
8FFD0000002FFF40
5FFF2000005FFF10
0DFF900000CFFA00
04FFF8103BFFD100
005EFFFFFFFB2000
00017BDEDA400000
ENDCHAR
STARTCHAR one
ENCODING 49
SWIDTH 503 0
DWIDTH 10 0
BBX 12 16 -1 -1
BITMAP
000000253000
0147BEFF6000
6BEFFFFF5000
00038FFF5000
00004FFF4000
00003FFF4000
00002FFF3000
00002FFF3000
00001FFF2000
00000FFF2000
00000FFF1000
00000EFF1000
00000EFF0000
00002EFF3000
004BFFFFFB30
069999999996
ENDCHAR
STARTCHAR two
ENCODING 50
SWIDTH 638 0
DWIDTH 13 0
BBX 14 17 -1 -1
BITMAP
03000000000000
04800035520000
02F44DFFFFB300
00FEFFEBDFFE40
00DFF80008FFD0
00BF900000EFF2
009E100000EFF2
0078000005FFD0
005300004EFF40
0020004BFFE540
00002BFFE810B0
0005EFF81004D0
005FFE30000CC0
03FFF400115FC0
0CFFFEFFFFFFB0
1FFFFFFFFFFFA0
03445667889960
ENDCHAR
STARTCHAR three
ENCODING 51
SWIDTH 620 0
DWIDTH 12 0
BBX 13 18 -1 -2
BITMAP
01000000000000
08000000000000
09606CFFD92000
06FBFFFFFFF500
03FFD5129FFF20
00EE10000AFF70
00B5000008FF80
007000001CFF50
00000878DFFC00
00000DFFFFFA00
00200669EFFF70
00A000002EFFD0
00E600000BFFE0
04FE30001EFFC0
07FFE745CFFF40
0B99FFFFFFE500
0C1039CCB71000
32000000000000
ENDCHAR
STARTCHAR four
ENCODING 52
SWIDTH 606 0
DWIDTH 12 0
BBX 13 18 -1 -2
BITMAP
00000000001000
00000000084000
000000006F3000
00000004FF3000
0000002EFF3000
000001DFFF2000
00000BFFFF2000
00009FEFFF2000
0007FF4EFF1060
004FF60EFF1490
03EF700EFF1C90
1DFFEEEFFFFF80
8BBAAAAEFF9E80
0000000CFE0970
0000000CFE0270
0000002DFE1020
00005BFFFFE710
00045555555530
ENDCHAR
STARTCHAR five
ENCODING 53
SWIDTH 610 0
DWIDTH 12 0
BBX 12 16 0 -1
BITMAP
0000001358A4
3579CEFFFFF4
DFFFFFFFFFF2
BFFA753207F0
8FF4000002D0
5FF645530070
3FFFFFFFD610
0FFEBCFFFF90
0C70002CFFF3
01000001FFF8
04000000EFF9
1E200003FFF7
4FE6002CFFF2
6FFFFEFFFF80
8A5EFFFFF800
600169972000
ENDCHAR
STARTCHAR six
ENCODING 54
SWIDTH 619 0
DWIDTH 12 0
BBX 13 19 0 -2
BITMAP
00000000001000
00000000017000
00000000069000
0002ADD91BB000
004FFFFFEFD000
02EFFEABFFE000
0AFFD1003CF100
2FFF601100A300
7FFFDFFFD92200
AFFFFC9CFFE300
DFFF8000AFFC00
EFFC00001FFF20
FFF800000CFF40
DFF700000CFF40
9FFA00000EFF10
3FFF20007FFB00
08FFD659FFD200
006EFFFFFA1000
00003564100000
ENDCHAR
STARTCHAR seven
ENCODING 55
SWIDTH 598 0
DWIDTH 12 0
BBX 13 17 0 -2
BITMAP
44322100000000
BFFFFFFFEDDCA0
7FFFFFFFFFFF80
2FF42345FFFF20
0CE00003FFFB00
07B00007FFF500
0370000AFFE000
0020000EFF8000
0000003FFF2000
0000007FFB0000
000000AFF50000
000000EFD00000
000003FF800000
000008FF200000
0006DFFFD50000
029CCDDEEFC500
00000000000100
ENDCHAR
STARTCHAR eight
ENCODING 56
SWIDTH 642 0
DWIDTH 13 0
BBX 13 17 0 -2
BITMAP
00000121000000
0007DFFFC60000
01CFFDADFFB100
09FFC101CFF800
0EFF50005FFE00
1FFF30004FFF00
0EFF60007FFD00
07FFE414EFF600
01EFFFFFFFD100
1DFFFDBEFFFC10
9FFF90009FFF80
EFFE00000EFFD0
EFFD00000DFFE0
BFFF20003FFFB0
3FFFD303DFFE30
04EFFFFFFFD300
00059BCB950000
ENDCHAR
STARTCHAR nine
ENCODING 57
SWIDTH 610 0
DWIDTH 12 0
BBX 13 18 0 -3
BITMAP
00002442000000
006DFFFFC40000
09FFE87DFF5000
5FFE2001DFF200
BFF900007FF900
EFF700005FFE00
EFF800006FFF10
CFFD0000BFFF10
5FFF923AFFFF00
09FFFFFFFFFD00
025CFFFDCFFA00
0B101210DFF500
0BD40008FFD000
09FFC9CFFF4000
07FEFFFFF60000
05E17CCA300000
03800000000000
01200000000000
ENDCHAR
STARTCHAR colon
ENCODING 58
SWIDTH 223 0
DWIDTH 4 0
BBX 5 9 0 -2
BITMAP
3AA300
DFFE10
DFFE10
288300
000000
289200
CFFE00
DFFF10
3AA400
ENDCHAR
STARTCHAR semicolon
ENCODING 59
SWIDTH 228 0
DWIDTH 5 0
BBX 5 12 0 -5
BITMAP
29A400
CFFE10
BFFE10
189300
000000
056100
AFFC00
EFFF10
5CFE00
07F600
0C6000
010000
ENDCHAR
STARTCHAR less
ENCODING 60
SWIDTH 563 0
DWIDTH 11 0
BBX 12 13 0 0
BITMAP
0000000005D2
00000002BFF6
0000018FFFFA
00006EFFFFE7
003CFFFFF810
19FFFFF92000
8FFFFA200000
04DFFD200000
0008FFE50000
00002BFF7000
0000006EFA10
00000001AFD0
0000000005C0
ENDCHAR
STARTCHAR equal
ENCODING 61
SWIDTH 531 0
DWIDTH 11 0
BBX 11 9 0 1
BITMAP
443211000000
EFFFFFFEED50
EFFFFFFFFF60
FFFFEEDDCC40
110000000000
ACCDDEEEFF60
EFFFFFFFFF60
DEEFFFFFFF50
000012234520
ENDCHAR
STARTCHAR greater
ENCODING 62
SWIDTH 576 0
DWIDTH 12 0
BBX 12 13 0 0
BITMAP
4D4000000000
8FFA20000000
CFFFE7000000
8FFFFFD50000
029FFFFFB200
0002AFFFFF81
000003BFFFF7
000003DFFC30
00005EFE7000
0008FFB20000
01BFE5000000
1DF910000000
0C4000000000
ENDCHAR
STARTCHAR question
ENCODING 63
SWIDTH 592 0
DWIDTH 12 0
BBX 12 19 0 -1
BITMAP
020000000000
0B1000000000
0FCACCB83000
3FFCBDFFFA10
7D40003CFFC1
93000001DFF6
400000008FFA
000000008FFB
00000002EFF8
0029547EFFE2
005FFFFFFD30
007FFE874000
009FF7000000
00BFF1000000
001450000000
18B810000000
8FFF90000000
5FFFA0000000
048810000000
ENDCHAR
STARTCHAR at
ENCODING 64
SWIDTH 792 0
DWIDTH 16 0
BBX 17 15 0 -1
BITMAP
000000356530000000
00029EFFFFFE710000
007FFD73226DFC2000
07FF80379710BFD100
2FF907FCBFE31EF800
8FE12FE108FA08FE00
DFA03FF204FD05FF40
EF80047667FD03FF50
EF903EFCBDFC03FF50
DFB0AFC009FB05FF30
9FF18FE55CFA08FD00
2FFA18DEDEF90DF600
06FFA10007FEAF9000
004DFE83006AA50000
000047ABB940000000
ENDCHAR
STARTCHAR A
ENCODING 65
SWIDTH 788 0
DWIDTH 16 0
BBX 23 19 -3 -5
BITMAP
000025543321000000000000
000003BFFFFF200000000000
00000003BFFF900000000000
000000000AFFF20000000000
000000001EFFF90000000000
000000009FCFFF2000000000
00000002FC1EFF9000000000
00000009F409FFF100000000
0000002FA002FFF800000000
000000AFEDDCEFFE10000000
000003FFFFFFEFFF80000000
00000BF421000CFFE1000000
00004F90000006FFF8000000
005BFFB1000000EFFE100000
5CFFFFFE6000007FFF910000
000123456300002FFFFFB720
00000000000000BFFFEB7400
0000000000000AEB74000000
000000000000230000000000
ENDCHAR
STARTCHAR B
ENCODING 66
SWIDTH 774 0
DWIDTH 15 0
BBX 18 17 -2 -3
BITMAP
444333222210000000
2BFFFFFFFFFEC83000
005DFFFEDDEFFFFC30
0001FFF800015CFFE1
0000EFF9000000DFF6
0000DFF9000001EFF6
0000BFF900026DFFC0
0000AFFFEDEFFFFA10
00009FFFFFFFFF7000
00008FFE357CFFFA00
00006FFF00005FFF80
00005FFF00000DFFD0
00004FFF10008FFFB0
00003FFF459EFFFC20
0005EFFFFFFFEB5000
03BFFECB9753000000
154200000000000000
ENDCHAR
STARTCHAR C
ENCODING 67
SWIDTH 766 0
DWIDTH 15 0
BBX 16 17 0 -2
BITMAP
0000000000000041
0000058AB95102C0
0006EFFFFFFE5CB0
009FFFFA77BFFF90
07FFFC200006FF60
1EFFE10000007F40
5FFF700000000C10
8FFF300000000500
9FFF200000000000
8FFF300000000000
5FFF600000000300
1EFFC00000000B00
07FFF70000006F20
00BFFFA30017FF50
001AFFFFFEFFEA80
00003AEFFFD82080
0000000121000010
ENDCHAR
STARTCHAR D
ENCODING 68
SWIDTH 833 0
DWIDTH 17 0
BBX 19 15 -2 -1
BITMAP
46655555555530000000
05BFFFFFFFFFFEA30000
00039FFFFA99CFFF7000
00000AFFF30004EFF700
000009FFF200006FFF20
000007FFF200000EFF70
000006FFF100000DFF90
000005FFF000000BFFA0
000004FFE000000DFF90
000003FFE000000EFF50
000003FFD000005FFE10
000002FFC00002DFF700
000006FFE999BFFF8000
0005DFFFFFFFFEA40000
00698765433210000000
ENDCHAR
STARTCHAR E
ENCODING 69
SWIDTH 781 0
DWIDTH 16 0
BBX 17 16 -2 -1
BITMAP
000000000001234550
256789ABDEFFFFFFC0
038DFFFFECB987CFB0
00003FFFA000005FA0
00000EFFA000400DA0
00000EFF9005700690
00000DFF900D700070
00000DFF906F600010
00000CFFFFFF600020
00000BFFFFFF600430
00000BFF817F500940
00000AFF700C500E40
00000AFF7003405F40
00001BFF844444BF40
004AFFFFFFFFFFFF40
057777666666666610
ENDCHAR
STARTCHAR F
ENCODING 70
SWIDTH 731 0
DWIDTH 15 0
BBX 16 17 -2 -2
BITMAP
0000000000001245
1345789ACDEFFFFF
04AEFFFFFDCA9AFF
00005FFF800001EF
00001FFF8001109F
00001FFF7008103F
00000FFF702F100C
00000FFF71AF1007
00000FFFFFFF1001
00000EFFFFFF0000
00000EFF60CF0000
00000DFF503F0000
00000DFF50090000
00000CFF50010000
00016EFFB3000000
029EFFFFFFC50000
0111111112221000
ENDCHAR
STARTCHAR G
ENCODING 71
SWIDTH 828 0
DWIDTH 17 0
BBX 18 16 0 -1
BITMAP
000000000000019000
0000169BCB822DB000
0007EFFFFFFFEFA000
00AFFFE856BFFF8000
07FFFB100005EF7000
1FFFE10000005F6000
5FFF900000000A5000
8FFF60000000023000
9FFF40049BBBBBBBB6
8FFF500004AEFFE820
5FFF90000005FFB000
1EFFE1000005FFD000
07FFFA00000AFFE000
00BFFFB4239FFFF100
0008FFFFFFFE64E200
000027ACBA61003200
ENDCHAR
STARTCHAR H
ENCODING 72
SWIDTH 797 0
DWIDTH 16 0
BBX 20 16 -2 -2
BITMAP
0000000016DFFFFEED61
477766666635DFFF6100
04AFFFFFB4008FFE0000
0003FFF800008FFE0000
0001FFF700007FFD0000
0000FFF600007FFD0000
0000FFF600007FFD0000
0000EFFA7777AFFC0000
0000EFFFFFFFFFFC0000
0000EFFB87537FFB0000
0000DFF500005FFB0000
0000DFF500005FFA0000
0000CFF400019FFD4000
0000CFF404AEFFFFFD72
0049EFFC720000000000
28AAAAAAAA7200000000
ENDCHAR
STARTCHAR I
ENCODING 73
SWIDTH 445 0
DWIDTH 9 0
BBX 13 16 -2 -2
BITMAP
28CBBBBBBAA820
0039EFFFFA4000
00002FFF800000
00001FFF700000
00000FFF700000
00000FFF600000
00000EFF600000
00000EFF600000
00000DFF500000
00000CFF500000
00000CFF400000
00000BFF400000
00000BFF300000
00000AFF300000
00039EFFD71000
038BBBBBBBB610
ENDCHAR
STARTCHAR J
ENCODING 74
SWIDTH 718 0
DWIDTH 14 0
BBX 19 18 -2 -3
BITMAP
00000000000001368610
00000002579CEFFC4000
000048CEFFFFFF500000
00000000129FFF000000
00000000005FFF200000
00000000002FFF400000
00000000000EFF600000
00000000000CFF800000
00000000000AFFA00000
000000000009FFB00000
000000000008FFC00000
599999981008FFB00000
04CFFE810009FF900000
000BFC00000DFF600000
0007FF20004FFE100000
0001DFD647EFF5000000
00002CFFFFFD50000000
00000036763000000000
ENDCHAR
STARTCHAR K
ENCODING 75
SWIDTH 934 0
DWIDTH 19 0
BBX 24 17 -1 -2
BITMAP
445667789983000000000000
27DFFFFFC516777777776200
0005FFFA00005CFFFFC61000
0002FFF9000019FFA3000000
0001FFF80006EFD400000000
0000FFF803CFF80000000000
0000EFF99FFF300000000000
0000EFFFFEFF900000000000
0000DFFD60CFF60000000000
0000CFF6002EFF4000000000
0000BFF60006FFE200000000
0000AFF50000BFFC10000000
0000AFF500001EFFA0000000
0005DFFC610005FFF8000000
16DFFFFFFFA5009FFF600000
01111111111128EFFFFD7200
0000000000059AAAAAAAAA61
ENDCHAR
STARTCHAR L
ENCODING 76
SWIDTH 712 0
DWIDTH 14 0
BBX 17 16 -2 0
BITMAP
28AAAABBBBBA500000
0039EFFFFD71000000
00000EFFD000000000
00000EFFD000000000
00000DFFD000000000
00000CFFC000000000
00000BFFC000000000
00000AFFC000000210
00000AFFC000000810
000009FFB000000D10
000008FFB000004F10
000007FFB00000AF10
000006FFB00001FF10
000008FFC65549FF10
0005DFFFFFFFFFFF10
03ABBA998776554300
ENDCHAR
STARTCHAR M
ENCODING 77
SWIDTH 1033 0
DWIDTH 21 0
BBX 24 16 -2 -1
BITMAP
133322222000000027766543
04BFFFFFF2000000BFFFFD71
00029FFFF9000004FFFF5000
00001FFFFF20000CFFFF2000
00000FFFFF90005FFFFF1000
00000EFFFFF200DFEFFF0000
00000DFBFFF907FBBFFF0000
00000CF6CFFF3EF4BFFE0000
00000BF63FFFEFB0BFFD0000
000009F70AFFFF40BFFD0000
000008F702EFFB00BFFC0000
000007F8008FF400BFFB0000
000006F8001DC000BFFA0000
000006FA00054003DFFC4000
0027CFFFE95102AEEEFFFD83
158888888887400000000111
ENDCHAR
STARTCHAR N
ENCODING 78
SWIDTH 840 0
DWIDTH 17 0
BBX 21 16 -2 -1
BITMAP
1332222111566677788840
05CFFFFFD117DFFFFFA200
0004BFFFFB0004BFC20000
00000EFFFF80004FA00000
00000EFFFFF5004FA00000
00000EF9FFFE303FA00000
00000EF1BFFFD13F900000
00000EF11DFFFB3F900000
00000EF102EFFFBF900000
00000EF2003FFFFF800000
00000EF20005FFFF800000
00000EF300007FFF800000
00002EF6000009FF800000
003AFFFFE83000BF700000
29DDDDDDDDDB511D700000
0000000000000002500000
ENDCHAR
STARTCHAR O
ENCODING 79
SWIDTH 808 0
DWIDTH 16 0
BBX 16 14 0 -1
BITMAP
0000002454100000
0004AEFFFFFC5000
009FFFEBACFFFB10
08FFFB20006FFFA0
2FFFC0000009FFF4
7FFF40000003FFF9
8FFF20000000FFFB
8FFF30000000FFFB
6FFF50000003FFF8
1EFFC0000009FFF2
05FFFA00008FFF70
006EFFEBBEFFF700
00028DFFFFD92000
0000002331000000
ENDCHAR
STARTCHAR P
ENCODING 80
SWIDTH 746 0
DWIDTH 15 0
BBX 18 14 -2 -1
BITMAP
28BBBAA99986410000
003AFFFFFFFFFFB500
00004FFF43459DFF70
00002FFF100001BFF1
00002FFF100001CFE0
00002FFF31259EFE40
00002FFFFFFFFC6100
00001FFFC863100000
00001FFF7000000000
00001FFF7000000000
00001FFF8000000000
00005FFFB100000000
004CFFFFFE93000000
069999888887400000
ENDCHAR
STARTCHAR Q
ENCODING 81
SWIDTH 789 0
DWIDTH 16 0
BBX 18 19 0 -6
BITMAP
000059CEEDA4000000
003CFFFFFFFFB20000
03EFFE6104EFFD1000
0CFFE200002FFF9000
2FFF70000009FFE100
5FFF30000006FFF300
5FFF30000005FFF400
4FFF40000007FFF200
0EFFA000000BFFD000
07FFF400006FFF5000
00AFFF856AFFF60000
0006EFFFFFFC400000
00000479FFF1000000
00000000BFF8000000
000000008FFF752000
000000004FFFFFFFA4
00000002DFFFEA6100
0000004EFC73000000
000004951000000000
ENDCHAR
STARTCHAR R
ENCODING 82
SWIDTH 826 0
DWIDTH 17 0
BBX 24 18 -2 -5
BITMAP
17DDCCCBBA98630000000000
0017DFFFFFFFFFE800000000
00000FFF52236BFFC0000000
00000EFF4000008FF4000000
00000EFF500001BFE2000000
00000EFF73469EFD30000000
00000DFFFFFFFE5000000000
00000DFFC65DFF3000000000
00000DFFA006FFD100000000
00000DFFB000CFF900000000
00000CFFB0004FFF40000000
00005EFFD3000BFFD1000000
004CFFFFFFC613FFFA000000
04877777666650AFFFCBBB93
000000000000002FFFFFA400
00000000000000AFFD710000
00000000000008FA40000000
000000000000471000000000
ENDCHAR
STARTCHAR S
ENCODING 83
SWIDTH 661 0
DWIDTH 13 0
BBX 13 16 0 -2
BITMAP
00000000000060
005BEFFEB607A0
0BFFD99BFFDF80
7FFA00002AFF60
BFF90000007F50
BFFFC730000830
5FFFFFFEA40000
06FFFFFFFFD400
0017CFFFFFFF40
04000149FFFFD0
094000003EFFF0
0AE300000BFFC0
0CFF93238FFF40
0D7CFFFFFFC400
0B003788620000
14000000000000
ENDCHAR
STARTCHAR T
ENCODING 84
SWIDTH 754 0
DWIDTH 15 0
BBX 15 15 0 -1
BITMAP
1666665555544410
2FFFFFFFFFFFFF30
1FF659FFF867FF10
0EC006FFF300DF00
0D7005FFF2008D00
0C2005FFF2003B00
070004FFF1000700
010004FFF1000100
000004FFF0000000
000003FFF0000000
000003FFE0000000
000002FFE0000000
00003AFFF7100000
003AFFFFFFE81000
0144445555555000
ENDCHAR
STARTCHAR U
ENCODING 85
SWIDTH 725 0
DWIDTH 15 0
BBX 18 15 -2 -1
BITMAP
000000000022221111
28BA98754318FFFFD5
003BFFFD71002DF900
0005FFF400000CF600
0006FFF400000BF500
0006FFF400000AF400
0007FFF400000AF400
0007FFF3000009F300
0007FFF3000008F300
0007FFF4000009F200
0005FFF700000CE000
0001EFFE20006FA000
00006FFFE87BFE2000
000006EFFFFFC30000
000000157863000000
ENDCHAR
STARTCHAR V
ENCODING 86
SWIDTH 786 0
DWIDTH 16 0
BBX 21 17 -3 -2
BITMAP
0000000000310000000000
00000148BD503100000000
0259CFFFB2001AEC975200
268ADFFF4000005EFFEA50
00002FFFA000000CE40000
000009FFF200004F800000
000002FFF90000CE100000
000000AFFE1005F8000000
0000002FFF700DE1000000
0000000AFFD06F70000000
00000003FFF6DE10000000
00000000AFFFF700000000
000000003FFFD000000000
000000000BFF6000000000
0000000003FD0000000000
0000000000B60000000000
0000000000300000000000
ENDCHAR
STARTCHAR W
ENCODING 87
SWIDTH 1026 0
DWIDTH 21 0
BBX 27 16 -3 -2
BITMAP
0000000000010000000000000000
245789ABDEB400005AA875310000
038CFFFFC4000730005CFFFFC610
00007FFF40000DB00000BF720000
00001FFFA0006FF40001EC000000
000009FFE100DFFC0006F7000000
000003FFF605FFFF600CF1000000
000000CFFC0CFFFFD12FA0000000
0000005FFF6FFBFFF78F40000000
0000000EFFFFE1CFFEED00000000
00000008FFFF805FFFF700000000
00000002FFFE100CFFF200000000
00000000AFF80005FFB000000000
000000004FF20000DF5000000000
000000000C9000006E0000000000
0000000006200000070000000000
ENDCHAR
STARTCHAR X
ENCODING 88
SWIDTH 860 0
DWIDTH 17 0
BBX 21 14 -2 -1
BITMAP
0000000013430000000000
028ACDEFFD624456778500
00037DFFE1007EFFFA3000
000003EFFB002CFB200000
0000005FFF83DF90000000
00000008FFFFF700000000
00000000BFFF9000000000
00000001AFFFF300000000
0000001CFEFFFD10000000
000003DFB17FFFB0000000
00004EF9000AFFF8000000
005CFFD20001CFFF600000
3ACCDDEE7001AFFFFD7100
00000000007DEDCCBBA930
ENDCHAR
STARTCHAR Y
ENCODING 89
SWIDTH 848 0
DWIDTH 17 0
BBX 21 15 -3 -2
BITMAP
17AABCDDEE600000000000
0039EFFFE20017AA998760
000006FFF900006EFFC500
0000007FFF60001CD30000
00000009FFF401CE200000
00000000BFFE3CE3000000
000000001CFFFF40000000
0000000001DFF500000000
00000000009FF300000000
0000000000AFF500000000
0000000000BFF600000000
0000000000BFF800000000
0000000001DFFB20000000
000000028EFFFFFC610000
0000001666655555551000
ENDCHAR
STARTCHAR Z
ENCODING 90
SWIDTH 685 0
DWIDTH 14 0
BBX 15 13 0 0
BITMAP
0000001112233310
8EEEFFFFFFFFFC00
5FFDDCCBDFFFE200
1FD00002EFFF4000
0CA0001DFFF70000
087000CFFFA00000
04400AFFFD100400
00107FFFE2005600
0005FFFF5000D500
003FFFF80006F500
02EFFFD3211EF400
1DFFFFFFFFFFF300
5999999AAAAAA100
ENDCHAR
STARTCHAR bracketleft
ENCODING 91
SWIDTH 380 0
DWIDTH 8 0
BBX 8 20 1 -3
BITMAP
56655443
CFFFFE81
BFFE7100
BFF70000
BFF60000
AFF60000
AFF60000
9FF60000
9FF50000
8FF50000
8FF50000
8FF50000
7FF40000
7FF40000
6FF40000
6FF40000
5FF30000
5FFA2000
5FFFF910
26666651
ENDCHAR
STARTCHAR backslash
ENCODING 92
SWIDTH 680 0
DWIDTH 14 0
BBX 14 20 0 -2
BITMAP
00340000000000
19FD0000000000
9FFF7000000000
1EFFE100000000
06FFF900000000
00CFFF30000000
003FFFB0000000
0008FFF5000000
0001DFFD100000
00005FFF700000
00000AFFE20000
000002EFFA0000
0000007FFF3000
0000000CFFC000
00000003FFF600
000000009FFE10
000000001EFF80
0000000005FFF2
0000000000BF91
00000000002300
ENDCHAR
STARTCHAR bracketright
ENCODING 93
SWIDTH 371 0
DWIDTH 7 0
BBX 8 20 -1 -3
BITMAP
34455664
29FFFFF9
0018EFF9
00009FF8
00009FF8
00009FF7
00009FF7
00008FF6
00008FF6
00008FF6
00008FF5
00007FF5
00007FF4
00007FF4
00007FF3
00006FF3
00006FF3
0003BFF2
02AFFFF2
16666651
ENDCHAR
STARTCHAR asciicircum
ENCODING 94
SWIDTH 671 0
DWIDTH 13 0
BBX 15 13 -1 5
BITMAP
0000000600000000
0000005F40000000
000001DFD1000000
000008FFF8000000
00002FFFFF300000
0000AFFFEFC00000
0004FFF95FF60000
000DFFF208FE2000
007FFF9000BFA000
02EFFF20001DF500
0AFFF8000003ED10
19DFE10000004620
0002300000000000
ENDCHAR
STARTCHAR underscore
ENCODING 95
SWIDTH 840 0
DWIDTH 17 0
BBX 17 5 0 -3
BITMAP
555666667777888860
FFFFFFFFFFFFFFFFB0
FFFFFFFFFFFFFFFFB0
DEEEEFFFFFFFFFFFC0
000000000111122220
ENDCHAR
STARTCHAR grave
ENCODING 96
SWIDTH 707 0
DWIDTH 14 0
BBX 4 6 6 11
BITMAP
0350
BFD0
AFF3
2FF8
09F9
0120
ENDCHAR
STARTCHAR a
ENCODING 97
SWIDTH 572 0
DWIDTH 11 0
BBX 13 13 0 -1
BITMAP
00000110000000
0039EFFD700000
05FFA7AFFA0000
0EFD000BFF3000
0FFF1007FF6000
06B60006FF7000
029DEDCDFF6000
3EFE867DFF5000
8FF8000CFF3000
7FFC213EFF2000
1AFFFFFFFF1000
0025778FFFD710
00000026654420
ENDCHAR
STARTCHAR b
ENCODING 98
SWIDTH 723 0
DWIDTH 14 0
BBX 18 19 -3 -4
BITMAP
013568ACC000000000
28DFFFFFC000000000
00038EFFB000000000
00000DFFB000000000
00000CFFA000000000
00000BFF9000000000
00000BFF9000000000
00000AFF8000000000
00000AFF8001000000
000009FFCCFFFEA400
000008FFFCABEFFF70
000008FF60001CFFF1
000007FF500005FFF4
000006FF400003FFF2
000006FF30000AFFA0
000007FF5236CFFB10
00008FFFFFFFFC5000
001BEDCB9875200000
001100000000000000
ENDCHAR
STARTCHAR c
ENCODING 99
SWIDTH 589 0
DWIDTH 12 0
BBX 12 12 0 -2
BITMAP
00017BDC9200
005EFFDFFF60
04FFE301EFF3
0DFF6000FFF5
3FFF10008EC1
5FFF00000000
5FFF10000005
2FFF70000087
0AFFF7102AF2
01DFFFFEFF80
0018EFFFD600
000002320000
ENDCHAR
STARTCHAR d
ENCODING 100
SWIDTH 713 0
DWIDTH 14 0
BBX 16 20 0 -4
BITMAP
0000002898765410
000000005CFFFF10
0000000000AFFF00
00000000009FFD00
0000000000AFFB00
0000000000BFF900
0000000000CFF700
0000000000CFF500
00028BBA72DFF300
007FFFFFFFFFF100
06FFF83249FFE000
0EFF600001FFC000
2FFF000001FFA000
2FFD000002FF9000
0EFF300003FF7000
06FFE50004FF5000
006EFFECCFFF3000
00017ACDCCFF8410
0000000006FFDB94
0000000002200000
ENDCHAR
STARTCHAR e
ENCODING 101
SWIDTH 593 0
DWIDTH 12 0
BBX 12 12 0 -2
BITMAP
000002320000
0018EFFFC400
01CFFECFFF40
0AFF9003EFE1
2FFE10008FF6
5FFE9998BFF9
5FFFFFFFFFFA
2FFE22111000
0BFF80000270
02DFFDAACE30
0019FFFFA200
000013310000
ENDCHAR
STARTCHAR f
ENCODING 102
SWIDTH 507 0
DWIDTH 10 0
BBX 13 28 -1 -8
BITMAP
00000001310000
000002CFFF7000
00001DFD8DF900
00008FF405FF20
0000DFE00AFF50
0001FFC005FE20
0002FFC0001000
0003FFC0000000
0002FFD0000000
0011FFF1111000
0BFFFFFFFFD000
08BBEFFCBB9000
0000BFF6000000
00009FF8000000
00007FF9000000
00005FFB000000
00003FFD000000
00001FFF000000
00000EFF100000
00000DFF300000
00000BFF500000
000009FF600000
030007FF700000
BFC007FF600000
EFE009FF300000
BFB01DFC000000
2EFCDFE3000000
02AEEA30000000
ENDCHAR
STARTCHAR g
ENCODING 103
SWIDTH 606 0
DWIDTH 12 0
BBX 14 23 0 -10
BITMAP
00000000048600
000000007FFFB0
00000223FDFFF1
0018EFFFF4DFB0
02DFE66DFE4400
0CFF3002EFD000
4FFA00009FF600
7FF700006FF900
7FF800006FF800
3FFB0000AFF500
0AFF5004FFC000
01BFFA9EFC1000
03DFEDDB600000
0CFFC643000000
08FFFFFFFB5000
03DFFECEFFF800
4EFE40006FFF40
CFF5000008FFA0
EFF2000004FFB0
DFF4000006FFA0
6FFD20003EFF40
08FFFBACFFE500
0028CDEDB71000
ENDCHAR
STARTCHAR h
ENCODING 104
SWIDTH 678 0
DWIDTH 14 0
BBX 19 20 -3 -2
BITMAP
00000000100000000000
01468ADFB00000000000
27BEFFFFA00000000000
00004FFFA00000000000
00000EFF900000000000
00000EFF800000000000
00000DFF800000000000
00000CFF700000000000
00000CFF600000000000
00000BFF601000000000
00000BFFEFFEC8200000
00000AFFEA8BFFE30000
00000AFF40008FFC0000
000009FF30002FFE0000
000008FF20000FFE0000
000008FF20000FFB0000
00001AFF50000FF80000
0006DFFFFA102FF80000
001322100018FFFFB200
00000000002334455510
ENDCHAR
STARTCHAR i
ENCODING 105
SWIDTH 393 0
DWIDTH 8 0
BBX 10 16 -1 0
BITMAP
00008C9000
0005FFF700
0007FFF800
0002DFE200
0000131000
1566666300
029FFFF700
0002EFF600
0000CFF500
0000CFF400
0000BFF300
0000AFF200
0000AFF100
00009FE000
0019FFF910
03CEEEFFD4
ENDCHAR
STARTCHAR j
ENCODING 106
SWIDTH 385 0
DWIDTH 8 0
BBX 9 22 -2 -7
BITMAP
0000794000
0007FFF200
000BFFF500
0006FFE100
0000462000
0002468900
029EFFFF00
00017FFF20
00000EFF30
00000CFF50
00000AFF60
000008FF80
000007FF90
000005FFB0
000003FFC0
000001FFD0
001000FFE0
2EF500EFD0
6FF900DFB0
3FF502FF70
07FEBEFC10
004ACB7100
ENDCHAR
STARTCHAR k
ENCODING 107
SWIDTH 749 0
DWIDTH 15 0
BBX 20 19 -3 -2
BITMAP
00000000100000000000
159BCDEFD00000000000
00037FFFC00000000000
00000EFFC00000000000
00000DFFC07CCCCCCC92
00000CFFB004DFFFB400
00000BFFB001BFD30000
00000AFFA02CFA100000
000009FFA3EF60000000
000008FFDEFF70000000
000007FFFEEFE1000000
000006FFC25FFA000000
000005FF800AFF400000
000004FF8001EFD00000
000003FF70005FF70000
000019FFC5000BFE2000
0018EFFFEEC602FFEB73
0022211000002CFFDA74
000000000004A8410000
ENDCHAR
STARTCHAR l
ENCODING 108
SWIDTH 369 0
DWIDTH 7 0
BBX 11 20 -2 -2
BITMAP
112222220000
49EFFFFD0000
0016EFFC0000
0000CFFB0000
0000BFFB0000
0000AFFA0000
0000AFFA0000
00009FF90000
00008FF90000
00008FF80000
00007FF80000
00006FF70000
00006FF70000
00005FF60000
00004FF60000
00004FF50000
00003FF50000
00007FF91000
002BFFFFE500
017766554310
ENDCHAR
STARTCHAR m
ENCODING 109
SWIDTH 990 0
DWIDTH 20 0
BBX 24 10 -2 1
BITMAP
001368BA2688200267500000
4BFFFFFEFFFFF8BFFFFB1000
0026DFFFC9CFFFFECEFF7000
00008FF9000BFFC103FFA000
00006FF60006FF5000EFC000
00004FF50005FF2000EFA000
00002FF30005FF1000EF9000
00018FF91005FE0017FFC200
005AAAAA923AFE428ABBCC71
0000000039BBBBB710000000
ENDCHAR
STARTCHAR n
ENCODING 110
SWIDTH 643 0
DWIDTH 13 0
BBX 17 10 -2 1
BITMAP
001368BA1687200000
4BFFFFFEFFFFF60000
0026DFFFC9CFFF1000
00008FF9000BFF4000
00006FF60006FF5000
00004FF50005FF4000
00002FF30005FF2000
00018FF91005FF0000
005AAAAA923AFE4000
0000000039BBBBB710
ENDCHAR
STARTCHAR o
ENCODING 111
SWIDTH 705 0
DWIDTH 14 0
BBX 14 11 0 -1
BITMAP
00003678740000
007EFFFFFFE800
0BFFE7214CFFB0
6FFE200001DFF7
BFF80000006FFC
BFF70000005FFD
9FFA0000008FFA
2FFF500004FFF3
04EFFB78BFFE50
0018DFFFFC7100
00000122000000
ENDCHAR
STARTCHAR p
ENCODING 112
SWIDTH 723 0
DWIDTH 14 0
BBX 18 17 -3 -5
BITMAP
000000011000000000
1579BCEF9000000000
016BFFFFB689751000
00001CFFFFFFFFE700
00000AFFB2016DFF70
00000AFF900002EFE1
000009FF900000BFF3
000008FF900000CFF3
000007FF900004FFE0
000006FFD7447EFF60
000005FFFFFFFFE600
000004FFA378851000
000003FFA000000000
000002FFA000000000
000001FFB000000000
00016DFFFD71000000
016BCBBA9987200000
ENDCHAR
STARTCHAR q
ENCODING 113
SWIDTH 682 0
DWIDTH 14 0
BBX 16 17 0 -5
BITMAP
0000000014444454
000000002FFFFE81
0039CEFECFFF9100
07FFFC9AEFFF3000
4FFE30002FFF2000
AFF500002FFF1000
CFF300002FFF0000
AFF600003FFE0000
4FFE30003FFD0000
08FFFCACFFFC0000
005CFFFEBFFB0000
000012103FFA0000
000000003FF90000
000000004FF80000
000000029FFB1000
000005BFFFFFF930
0000001223345563
ENDCHAR
STARTCHAR r
ENCODING 114
SWIDTH 595 0
DWIDTH 12 0
BBX 15 13 -2 -1
BITMAP
0000259C60488300
16AEFFFFACFFFF40
0038CFFFFEEFFF70
00000FFFD11CFF30
00000DFF60003200
00000CFF40000000
00000AFF40000000
000008FF30000000
000007FF30000000
000006FF82000000
00018FFFFFC61000
005DEDBA87542000
0121000000000000
ENDCHAR
STARTCHAR s
ENCODING 115
SWIDTH 533 0
DWIDTH 11 0
BBX 11 13 0 -1
BITMAP
0028AA610600
07FFFFFE6D00
5FF6016EFE00
9FF50001DE00
7FFFA4002C00
1CFFFFE92300
01AFFFFFF600
17039EFFFF50
3F40005DFF90
4FF71006FF80
6FFFEBBFFD20
7628CEDC7100
300000000000
ENDCHAR
STARTCHAR t
ENCODING 116
SWIDTH 422 0
DWIDTH 8 0
BBX 10 19 -1 -1
BITMAP
00000D9000
00003F8000
00008F7000
0002EF5000
027EFF4000
2FFFFFFDCA
19BFFFEFFD
003FFE0122
004FFD0000
005FFC0000
006FFA0000
007FF90000
008FF70000
009FF60003
00AFF50046
009FF701D5
005FFFCEE1
000BFFFF50
0000698200
ENDCHAR
STARTCHAR u
ENCODING 117
SWIDTH 614 0
DWIDTH 12 0
BBX 16 11 -2 -1
BITMAP
3BCCDD6177788800
018EFF6029EFFE00
000BFF40003FFB00
000BFF30003FF900
000BFF20004FF600
000BFF10005FF400
000AFF10006FF200
0008FF6001BFE000
0002EFFB9DFFD000
00004DFFFDAFFE93
00000023306B9630
ENDCHAR
STARTCHAR v
ENCODING 118
SWIDTH 639 0
DWIDTH 13 0
BBX 18 13 -3 -2
BITMAP
00002469B600000000
17CEFFFD3454321000
0026EFF8007EFFFEC5
00006FFE1002DFB500
00000DFF7002FD0000
000004FFE109F60000
000000BFF72FD00000
0000002FFEAF600000
00000009FFFD000000
00000001EFF6000000
000000007FD0000000
000000000D60000000
000000000300000000
ENDCHAR
STARTCHAR w
ENCODING 119
SWIDTH 805 0
DWIDTH 16 0
BBX 22 13 -3 -1
BITMAP
0000000001100000000000
17BCCDEEC604017CBBA984
003AFFF8000B6003DFC610
00009FFD003FD001EE1000
00002FFF509FF407F80000
00000AFFC1EFFB0EF20000
000003FFFAFFFF9FA00000
000000AFFFD7FFFF300000
0000003FFF61EFFB000000
0000000BFE007FF4000000
00000004F7001EC0000000
00000000B1000850000000
0000000010000100000000
ENDCHAR
STARTCHAR x
ENCODING 120
SWIDTH 717 0
DWIDTH 14 0
BBX 19 13 -2 -1
BITMAP
00000000012000000000
013579BDD61000000000
37ADFFFB16999AAB9400
00008FFF504DFFC50000
00000AFFF36FE5000000
000000CFFEFC20000000
0000001DFFE100000000
0000001BFFF800000000
000001CFCEFF50000000
00015DFB14FFE3000000
04AEFFFE715FFD410000
00011234546EFFFFB610
0000000029A875320000
ENDCHAR
STARTCHAR y
ENCODING 121
SWIDTH 655 0
DWIDTH 13 0
BBX 14 20 -1 -9
BITMAP
75100000000000
1CEA5129BA8652
01DFFE506EFFF7
008FFF2002FFF6
00CFFC0000FFF6
01FFF80000FFF5
04FFF40000FFF5
03FFF70000FFF4
00DFFF9569FFF3
003DFFFFFFFFF3
0000589864FFF2
0000000002FFF1
0000000002FFF1
0000000003FFF0
0049300005FFE0
01FFD00008FFB0
02FFB0000DFF60
00DF80008FFC00
002EFEBDFFD200
00018CEEC71000
ENDCHAR
STARTCHAR z
ENCODING 122
SWIDTH 549 0
DWIDTH 11 0
BBX 12 12 0 -1
BITMAP
233445556674
9FFFFFFFFFE2
6FD766AFFF50
3F8002EFF900
0F301DFFC100
0A00AFFE2020
0308FFF60360
005FFFA00A70
02EFFD102F80
1DFFFEBABF90
6BCDEFFFFFA0
000000123440
ENDCHAR
STARTCHAR braceleft
ENCODING 123
SWIDTH 708 0
DWIDTH 14 0
BBX 12 20 1 -3
BITMAP
000076655442
0001FFFFFD60
0000FFFC5000
0000FFF30000
0000FFF20000
0000EFF20000
0000EFF20000
0000DFF20000
0000DFF10000
027CFFF10000
28CFFFF10000
0002CFF10000
0000BFF00000
0000BFF00000
0000AFF00000
0000AFF00000
00009FF00000
00009FF71000
00008FFFE700
000036666640
ENDCHAR
STARTCHAR bar
ENCODING 124
SWIDTH 304 0
DWIDTH 6 0
BBX 4 19 1 -2
BITMAP
6AB8
9FFA
9FFA
8FFA
8FFA
8FF9
8FF9
8FF9
7FF9
7FF9
7FF8
7FF8
7FF8
7FF8
6FF7
6FF7
6FF7
6FF7
3773
ENDCHAR
STARTCHAR braceright
ENCODING 125
SWIDTH 517 0
DWIDTH 10 0
BBX 11 20 0 -3
BITMAP
344556640000
29FFFFF90000
0018EFF90000
00009FF80000
00009FF80000
00009FF70000
00008FF70000
00008FF70000
00008FF60000
00008FFEA510
00007FFFEA50
00007FF70000
00007FF40000
00007FF40000
00006FF40000
00006FF30000
00006FF30000
0003BFF20000
02AFFFF20000
166666510000
ENDCHAR
STARTCHAR asciitilde
ENCODING 126
SWIDTH 466 0
DWIDTH 9 0
BBX 10 5 0 4
BITMAP
0010000001
AEFFB736D5
FFFFFFFFF5
FD9BFFFFF5
8000158730
ENDCHAR
STARTCHAR uni00A0
ENCODING 160
SWIDTH 320 0
DWIDTH 6 0
BBX 1 1 0 0
BITMAP
00
ENDCHAR
STARTCHAR exclamdown
ENCODING 161
SWIDTH 305 0
DWIDTH 6 0
BBX 7 18 0 -7
BITMAP
003CC600
00AFFF10
005FFB00
00012000
008FC000
00BFD000
00DFC000
01FFC000
04FFB000
07FFA000
09FFA000
0CFF9000
0FFF9000
3FFF8000
5FFF7000
8FFF7000
AFFF6000
00121000
ENDCHAR
STARTCHAR cent
ENCODING 162
SWIDTH 417 0
DWIDTH 8 0
BBX 10 18 -1 -3
BITMAP
0000344000
0000CFD000
0000BFC000
0000AFC100
003BFFFE40
02EF603FE1
0AFB002FF5
0FF6000791
2FF5000000
2FF6000001
0EFB000036
07FF8116D1
009FFFFF50
0005CFD300
0000AFB000
0000BFC000
0000CFD000
0000111000
ENDCHAR
STARTCHAR sterling
ENCODING 163
SWIDTH 658 0
DWIDTH 13 0
BBX 14 16 0 -1
BITMAP
00000000000010
00000022000090
00007EFFE916C0
000BFFECFFEFA0
007FFC102BFF80
00CFF50000BF60
99EFF865522F40
EFFFFFFFF70920
BBAEFE99830400
1229FE34420014
EFFFFFFFF70074
BCDEFFFFF701E3
000CFA011106F2
005FFB99AAAEF1
01EFFFFFFFFFF1
0377889AABCCD0
ENDCHAR
STARTCHAR currency
ENCODING 164
SWIDTH 358 0
DWIDTH 7 0
BBX 7 8 0 3
BITMAP
08100710
AFDDCFB0
4EFEFF80
0EC07F40
0DE6BF30
5FFFFF80
8E555DA0
02000100
ENDCHAR
STARTCHAR yen
ENCODING 165
SWIDTH 796 0
DWIDTH 16 0
BBX 20 14 -3 0
BITMAP
00000000210000000000
1579ACEE700000000000
0159DFF90003BEEDDC71
00001CFF700007FC6100
000001CFF5003EA00000
0000001DFF44EA000000
00000002DFEFA0000000
000000234EFC10000000
000000BFFFFFFF600000
000000466CFD66200000
000000BFFFFFFF600000
000000012CFF45200000
000000038EFF95100000
0000049BBBBBBBA62000
ENDCHAR
STARTCHAR brokenbar
ENCODING 166
SWIDTH 304 0
DWIDTH 6 0
BBX 4 19 1 -2
BITMAP
6AB8
9FFA
9FFA
8FFA
8FFA
8FF9
8FF9
3652
0000
0000
1100
7FF7
7FF8
7FF7
6FF7
6FF7
6FF7
6FF7
3773
ENDCHAR
STARTCHAR section
ENCODING 167
SWIDTH 646 0
DWIDTH 13 0
BBX 13 24 0 -6
BITMAP
00016762000300
006EFFFFA13500
06FF845BFDA500
0EF900006FF400
2FFA000005F400
2FFF9100008300
0BFFFEA3001100
02DFFFFFC40000
008FFFFFFFA000
06FF9BFFFFF800
0EF90028FFFF10
2FF900003FFF20
2FFF81000EFF00
0CFFFE95AFF900
02EFFFFFFF7000
002CFFFFFF9000
01005CFFFFF700
08100039FFFE00
0BB000004FFF20
0CFA10000EFF10
0DFFE7449FF900
0E3AFFFFFE9000
18001576510000
11000000000000
ENDCHAR
STARTCHAR dieresis
ENCODING 168
SWIDTH 708 0
DWIDTH 14 0
BBX 7 3 4 16
BITMAP
8D32CA00
DF74FF10
37106400
ENDCHAR
STARTCHAR copyright
ENCODING 169
SWIDTH 700 0
DWIDTH 14 0
BBX 14 14 0 0
BITMAP
00002577620000
003BFFFFFFC300
05FFC6324AFF50
2FF704BC706FE2
9FA06F63E90AF9
DF31EA00CA04FD
FF13F8000002FF
EF23F9000103FE
BF50DE302906FB
6FC04EFDD31DF5
0BFA115511BFA0
01BFE978BFF900
0005BEFFEA4000
00000011000000
ENDCHAR
STARTCHAR ordfeminine
ENCODING 170
SWIDTH 399 0
DWIDTH 8 0
BBX 10 9 -1 7
BITMAP
005ACB6000
08FC9EF700
0CFA06FC00
03A757FE00
09FFEFFD00
2FF609FC00
1EFEBEFA00
01799EFF92
0000044320
ENDCHAR
STARTCHAR guillemotleft
ENCODING 171
SWIDTH 424 0
DWIDTH 9 0
BBX 9 11 0 -1
BITMAP
0008100900
004F507F30
01EE13FD00
0BF91DF600
7FF2AFE100
BFE0EFB000
3FF55FF200
07FC09F900
00BF31DE10
001D403E20
0003000300
ENDCHAR
STARTCHAR logicalnot
ENCODING 172
SWIDTH 541 0
DWIDTH 11 0
BBX 12 11 0 1
BITMAP
100000000000
600000000050
940000000580
9C9887655D70
9FFFFFFFFF60
9FFFFFFFFF50
99444333EF40
91000000BF30
300000007F20
00000002BF70
0000000689A6
ENDCHAR
STARTCHAR sfthyphen
ENCODING 173
SWIDTH 530 0
DWIDTH 11 0
BBX 11 4 0 5
BITMAP
AA9877654420
EFFFFFFFFF90
FFFFFFFFFF80
CCBBAA998830
ENDCHAR
STARTCHAR registered
ENCODING 174
SWIDTH 700 0
DWIDTH 14 0
BBX 14 14 0 0
BITMAP
00000245300000
0029EFFFFE9100
04EFE8546CFE30
1EFA1001008FE1
8FB28BF9CE6BF8
DF402AFEBFA5FC
EF1006F60202FE
EF1005F40002FE
CF4003F40005FC
7FB019FE820CF6
0DF83432109FC0
02DFC7568DFC10
0017DFFFFC6000
00000233100000
ENDCHAR
STARTCHAR macron
ENCODING 175
SWIDTH 705 0
DWIDTH 14 0
BBX 6 4 5 14
BITMAP
111111
EFFFF9
EFFFF9
788885
ENDCHAR
STARTCHAR degree
ENCODING 176
SWIDTH 364 0
DWIDTH 7 0
BBX 6 6 1 9
BITMAP
014100
3EFF60
CE8DF2
EB07F4
AFCFE1
1AEC30
ENDCHAR
STARTCHAR plusminus
ENCODING 177
SWIDTH 607 0
DWIDTH 12 0
BBX 12 13 0 0
BITMAP
000059860000
00008FFA0000
00007FF90000
7FFEEFFDBA96
8FFFFFFFFFFA
9FFFFFFFFFE8
23227FF60000
00005FF50000
00004FF40000
276544431100
5FFFFFFFFFF8
5FFFFFFFFFF8
5DCCBBAAA994
ENDCHAR
STARTCHAR twosuperior
ENCODING 178
SWIDTH 440 0
DWIDTH 9 0
BBX 9 11 0 7
BITMAP
3504872000
1FCFFFF700
0FF948FF40
0DA000FF70
0B2006FF50
07018FFA30
026EFD5570
0AFF601E60
8FFB88BF40
DFFFFFFF30
5667889A10
ENDCHAR
STARTCHAR threesuperior
ENCODING 179
SWIDTH 442 0
DWIDTH 9 0
BBX 9 12 0 6
BITMAP
5100000000
5A5BEC7100
2FFFDFFB00
0ED204FF40
0B3002FF40
030BBEFD00
020DFFFE20
0A0008FF90
1F9005FF80
4FFDAEFE20
798EFFB300
5000100000
ENDCHAR
STARTCHAR acute
ENCODING 180
SWIDTH 694 0
DWIDTH 14 0
BBX 5 6 5 14
BITMAP
005000
03FD50
08FF30
0DF900
1CF200
002000
ENDCHAR
STARTCHAR mu
ENCODING 181
SWIDTH 1000 0
DWIDTH 20 0
BBX 16 16 0 -6
BITMAP
4CCCDD4377788700
019FFF303AFFFB00
000EFF10006FF800
000DFF00006FF600
000DFE00007FF400
000DFD00008FF100
000DFD00009FE000
000CFF3002DFB000
000CFFEAAEFFA000
000CFFFFFCBFFD72
000CFD23209B8520
000BFC0000000000
000BFC0000000000
000BFC0000000000
000BFC0000000000
0001330000000000
ENDCHAR
STARTCHAR paragraph
ENCODING 182
SWIDTH 782 0
DWIDTH 16 0
BBX 18 15 -1 -1
BITMAP
000000000001122331
00048BDEFFFFFFFB40
03DFFFEFFEEFF93000
2EFE620EF62FE00000
5FF6000EF62FE00000
2EFD300EF53FE00000
02BFFD9FFA9FE00000
00038BEFFFFFE00000
0000000FF67FD00000
0000000FF35FD00000
0000000FF26FD00000
0000000FF28FD00000
0000001FFDFFF92000
000017CFFFFFFFF920
0027A9887765543320
ENDCHAR
STARTCHAR periodcentered
ENCODING 183
SWIDTH 226 0
DWIDTH 5 0
BBX 5 5 0 5
BITMAP
013000
6FFC10
BFFF40
5EFC10
001000
ENDCHAR
STARTCHAR cedilla
ENCODING 184
SWIDTH 780 0
DWIDTH 16 0
BBX 6 7 5 -4
BITMAP
007400
07F300
2EFE50
147EE0
0609F1
4FEFC0
06A810
ENDCHAR
STARTCHAR onesuperior
ENCODING 185
SWIDTH 390 0
DWIDTH 8 0
BBX 8 11 0 7
BITMAP
00001300
148CFE00
59DFFE00
000DFD00
000CFD00
000BFC00
000BFC00
000AFB00
0009FB00
002CFD20
07EFFFD3
ENDCHAR
STARTCHAR ordmasculine
ENCODING 186
SWIDTH 449 0
DWIDTH 9 0
BBX 11 8 -1 8
BITMAP
000134300000
02AFFFFE8000
0DFD525EFA00
5FF40007FF10
5FF20006FF20
1EFA001CFC00
03DFEDFFB200
000478730000
ENDCHAR
STARTCHAR guillemotright
ENCODING 187
SWIDTH 415 0
DWIDTH 8 0
BBX 9 11 0 -1
BITMAP
5400720000
AD10DB0000
5FA08F8000
0DF62FF400
07FE3AFD10
04FF66FF40
0AFC0CFA00
2FE24FD100
8F60BF3000
9A00C70000
2100300000
ENDCHAR
STARTCHAR onequarter
ENCODING 188
SWIDTH 918 0
DWIDTH 18 0
BBX 19 21 0 -3
BITMAP
00001300000000610000
148CFE00000003FD4000
59DFFE0000000CFF3000
000DFD0000006FF90000
000CFD000001EFE10000
000BFC000009FF500000
000BFC00003FFB000000
000AFB0000BFF2000000
0009FB0005FF70051000
002CFD201DFD003F1000
07EFFFD38FF402EF0000
00000002EF901CFF0000
0000000AFE10BFFF0100
0000004FF509FFFE1800
000000DFB06FC8FE8800
000007FF24FFDDFFF800
00001EF71ABAACFED700
00009FD0000006FC4700
0003FF4000005CFE5100
000AF900004ABBBBB710
00017100000000000000
ENDCHAR
STARTCHAR onehalf
ENCODING 189
SWIDTH 1007 0
DWIDTH 20 0
BBX 20 21 0 -3
BITMAP
00001300000000610000
148CFE00000003FD4000
59DFFE0000000CFF3000
000DFD0000006FF90000
000CFD000001EFE10000
000BFC000009FF500000
000BFC00003FFB000000
000AFB0000BFF2000000
0009FB0005FF70000000
002CFD201DFD00000000
07EFFFD38FF460145200
00000002EF90BAEFFFA0
0000000AFE109FE77EF9
0000004FF5008F3009FD
000000DFB00069001DFB
000007FF20005403CFE5
00001EF70000329FFB3A
00009FD000003EFC308C
0003FF400002EFE667FA
000AF9000007FFFFFFF9
000171000004899AABB6
ENDCHAR
STARTCHAR threequarters
ENCODING 190
SWIDTH 936 0
DWIDTH 19 0
BBX 19 21 0 -3
BITMAP
51000000000000330000
5A5BEC71000000DF8000
2FFFDFFB000007FF9000
0ED204FF40001EFE1000
0B3002FF40009FF50000
030BBEFD0003FFB00000
020DFFFE200CFE200000
0A0008FF906FF7000000
1F9005FF81EFC0015000
4FFDAEFE28FF300C6000
798EFFB32FF900AF6000
50001000BFE108FF5000
00000005FF505FFF5100
0000000DFB03FFFF5900
0000007FE22EF5FF7E00
000002EF71DFECFFED00
00000AFC07BBAAFFCD00
00004FF3000000FF3A00
0000CF90000039FF9200
0005FE100028BBBBB920
00005500000000000000
ENDCHAR
STARTCHAR questiondown
ENCODING 191
SWIDTH 568 0
DWIDTH 11 0
BBX 13 19 -1 -7
BITMAP
00000000386100
00000002FFFD00
00000001FFFF10
000000004BB600
00000001510000
00000007FF4000
0000000DFF2000
0001579FFF0000
007EFFFFFD0000
07FFFB64780000
0EFFA000000000
2FFF2000000000
2FFF1000000030
0DFF7000000830
05FFF700007F10
006EFFEBADFC00
00016ACDCAF900
00000000008500
00000000001200
ENDCHAR
STARTCHAR Agrave
ENCODING 192
SWIDTH 788 0
DWIDTH 16 0
BBX 23 25 -3 -5
BITMAP
000000000260000000000000
000000009FF1000000000000
000000007FF6000000000000
000000000DFC000000000000
0000000005FC000000000000
000000000030000000000000
000025543321000000000000
000003BFFFFF200000000000
00000003BFFF900000000000
000000000AFFF20000000000
000000001EFFF90000000000
000000009FCFFF2000000000
00000002FC1EFF9000000000
00000009F409FFF100000000
0000002FA002FFF800000000
000000AFEDDCEFFE10000000
000003FFFFFFEFFF80000000
00000BF421000CFFE1000000
00004F90000006FFF8000000
005BFFB1000000EFFE100000
5CFFFFFE6000007FFF910000
000123456300002FFFFFB720
00000000000000BFFFEB7400
0000000000000AEB74000000
000000000000230000000000
ENDCHAR
STARTCHAR Aacute
ENCODING 193
SWIDTH 788 0
DWIDTH 16 0
BBX 23 25 -3 -5
BITMAP
000000000023000000000000
00000000009FB10000000000
0000000000EFC00000000000
0000000004FF400000000000
0000000005EA000000000000
000000000011000000000000
000025543321000000000000
000003BFFFFF200000000000
00000003BFFF900000000000
000000000AFFF20000000000
000000001EFFF90000000000
000000009FCFFF2000000000
00000002FC1EFF9000000000
00000009F409FFF100000000
0000002FA002FFF800000000
000000AFEDDCEFFE10000000
000003FFFFFFEFFF80000000
00000BF421000CFFE1000000
00004F90000006FFF8000000
005BFFB1000000EFFE100000
5CFFFFFE6000007FFF910000
000123456300002FFFFFB720
00000000000000BFFFEB7400
0000000000000AEB74000000
000000000000230000000000
ENDCHAR
STARTCHAR Acircumflex
ENCODING 194
SWIDTH 788 0
DWIDTH 16 0
BBX 23 25 -3 -5
BITMAP
000000000033000000000000
0000000002EE100000000000
000000001DFFC00000000000
00000000AFEEF90000000000
00000005F911AF3000000000
000000002000020000000000
000025543321000000000000
000003BFFFFF200000000000
00000003BFFF900000000000
000000000AFFF20000000000
000000001EFFF90000000000
000000009FCFFF2000000000
00000002FC1EFF9000000000
00000009F409FFF100000000
0000002FA002FFF800000000
000000AFEDDCEFFE10000000
000003FFFFFFEFFF80000000
00000BF421000CFFE1000000
00004F90000006FFF8000000
005BFFB1000000EFFE100000
5CFFFFFE6000007FFF910000
000123456300002FFFFFB720
00000000000000BFFFEB7400
0000000000000AEB74000000
000000000000230000000000
ENDCHAR
STARTCHAR Atilde
ENCODING 195
SWIDTH 788 0
DWIDTH 16 0
BBX 23 24 -3 -5
BITMAP
000000002651041000000000
00000000FFFECF2000000000
00000000FDFFFF2000000000
000000007027950000000000
000000000000000000000000
000025543321000000000000
000003BFFFFF200000000000
00000003BFFF900000000000
000000000AFFF20000000000
000000001EFFF90000000000
000000009FCFFF2000000000
00000002FC1EFF9000000000
00000009F409FFF100000000
0000002FA002FFF800000000
000000AFEDDCEFFE10000000
000003FFFFFFEFFF80000000
00000BF421000CFFE1000000
00004F90000006FFF8000000
005BFFB1000000EFFE100000
5CFFFFFE6000007FFF910000
000123456300002FFFFFB720
00000000000000BFFFEB7400
0000000000000AEB74000000
000000000000230000000000
ENDCHAR
STARTCHAR Adieresis
ENCODING 196
SWIDTH 788 0
DWIDTH 16 0
BBX 23 22 -3 -5
BITMAP
00000000AC13D70000000000
00000001FF47FC0000000000
000000005601730000000000
000025543321000000000000
000003BFFFFF200000000000
00000003BFFF900000000000
000000000AFFF20000000000
000000001EFFF90000000000
000000009FCFFF2000000000
00000002FC1EFF9000000000
00000009F409FFF100000000
0000002FA002FFF800000000
000000AFEDDCEFFE10000000
000003FFFFFFEFFF80000000
00000BF421000CFFE1000000
00004F90000006FFF8000000
005BFFB1000000EFFE100000
5CFFFFFE6000007FFF910000
000123456300002FFFFFB720
00000000000000BFFFEB7400
0000000000000AEB74000000
000000000000230000000000
ENDCHAR
STARTCHAR Aring
ENCODING 197
SWIDTH 788 0
DWIDTH 16 0
BBX 23 22 -3 -5
BITMAP
0000000004DD400000000000
000000000EBAE00000000000
000000000F76F10000000000
000025543AFF800000000000
000003BFFFFF200000000000
00000003BFFF900000000000
000000000AFFF20000000000
000000001EFFF90000000000
000000009FCFFF1000000000
00000002FC1EFF8000000000
00000009F409FFE100000000
0000002FA002FFF800000000
000000AFEDDCEFFE10000000
000003FFFFFFEFFF80000000
00000BF421000CFFE1000000
00004F90000006FFF8000000
005BFFB1000000EFFE100000
5CFFFFFE6000007FFF910000
000123456300002FFFFFB720
00000000000000BFFFEB7400
0000000000000AEB74000000
000000000000230000000000
ENDCHAR
STARTCHAR AE
ENCODING 198
SWIDTH 1019 0
DWIDTH 20 0
BBX 25 17 -5 -2
BITMAP
00000000000000001223455640
00000019ABCDDEFFFFFFFFFF90
00000002AFFFFFFFFCBA87DF80
0000000005DFFFFFF000006F70
00000000008FCAFFF000400E70
0000000002FF39FFF003800860
000000000BF708FFE00A800250
000000005FC008FFE03F800010
00000001EF3008FFFFFF800210
00000009F91117FFFFFF700610
0000003FFFFFFFFFD14F700B10
000000CFEEDDDDFFD009601F10
000006F8000006FFC001505F10
00004EC0000008FFD44444BF10
017DFFE50039EFFFFFFFFFFF20
5BCDEFFF957777666666666610
00000012320000000000000000
ENDCHAR
STARTCHAR Ccedilla
ENCODING 199
SWIDTH 766 0
DWIDTH 15 0
BBX 16 22 0 -7
BITMAP
0000000000000041
0000058AB95102C0
0006EFFFFFFE5CB0
009FFFFA77BFFF90
07FFFC200006FF60
1EFFE10000007F40
5FFF700000000C10
8FFF300000000500
9FFF200000000000
8FFF300000000000
5FFF600000000300
1EFFC00000000B00
08FFF70000006F20
00BFFFA30017FF50
001AFFFFFEFFEA80
00004AEFFFD92080
0000008F31000010
000003FF91000000
0000048BFA000000
00000030CD000000
000007FCFA000000
000001ADA2000000
ENDCHAR
STARTCHAR Egrave
ENCODING 200
SWIDTH 781 0
DWIDTH 16 0
BBX 17 22 -2 -1
BITMAP
000000000620000000
00000004DF70000000
00000001EFD0000000
000000007FF3000000
000000001EE4000000
000000000310000000
000000000001234550
256789ABDEFFFFFFC0
038DFFFFECB987CFB0
00003FFFA000005FA0
00000EFFA000400DA0
00000EFF9005700690
00000DFF900D700070
00000DFF906F600010
00000CFFFFFF600020
00000BFFFFFF600430
00000BFF817F500940
00000AFF700C500E40
00000AFF7003405F40
00001BFF844444BF40
004AFFFFFFFFFFFF40
057777666666666610
ENDCHAR
STARTCHAR Eacute
ENCODING 201
SWIDTH 781 0
DWIDTH 16 0
BBX 17 21 -2 -1
BITMAP
000000000050000000
0000000003FD500000
0000000008FF300000
000000000DF9000000
000000001CF2000000
000000000021234550
256789ABDEFFFFFFC0
038DFFFFECB987CFB0
00003FFFA000005FA0
00000EFFA000400DA0
00000EFF9005700690
00000DFF900D700070
00000DFF906F600010
00000CFFFFFF600020
00000BFFFFFF600430
00000BFF817F500940
00000AFF700C500E40
00000AFF7003405F40
00001BFF844444BF40
004AFFFFFFFFFFFF40
057777666666666610
ENDCHAR
STARTCHAR Ecircumflex
ENCODING 202
SWIDTH 781 0
DWIDTH 16 0
BBX 17 22 -2 -1
BITMAP
000000000600000000
000000007F90000000
00000004FFF6000000
0000002EFDFF300000
000000BE504DD00000
000000110001200000
000000000001234550
256789ABDEFFFFFFC0
038DFFFFECB987CFB0
00003FFFA000005FA0
00000EFFA000400DA0
00000EFF9005700690
00000DFF900D700070
00000DFF906F600010
00000CFFFFFF600020
00000BFFFFFF600430
00000BFF817F500940
00000AFF700C500E40
00000AFF7003405F40
00001BFF844444BF40
004AFFFFFFFFFFFF40
057777666666666610
ENDCHAR
STARTCHAR Edieresis
ENCODING 203
SWIDTH 781 0
DWIDTH 16 0
BBX 17 19 -2 -1
BITMAP
0000000AC13D700000
0000001FF47FC00000
000000056017300000
000000000001234550
256789ABDEFFFFFFC0
038DFFFFECB987CFB0
00003FFFA000005FA0
00000EFFA000400DA0
00000EFF9005700690
00000DFF900D700070
00000DFF906F600010
00000CFFFFFF600020
00000BFFFFFF600430
00000BFF817F500940
00000AFF700C500E40
00000AFF7003405F40
00001BFF844444BF40
004AFFFFFFFFFFFF40
057777666666666610
ENDCHAR
STARTCHAR Igrave
ENCODING 204
SWIDTH 445 0
DWIDTH 9 0
BBX 13 23 -2 -2
BITMAP
00000260000000
00009FF1000000
00007FF6000000
00000DFB000000
000006FC000000
00000030000000
00000000000000
28CBBBBBBAA820
0039EFFFFA4000
00002FFF800000
00001FFF700000
00000FFF700000
00000FFF600000
00000EFF600000
00000EFF600000
00000DFF500000
00000CFF500000
00000CFF400000
00000BFF400000
00000BFF300000
00000AFF300000
00039EFFD71000
038BBBBBBBB610
ENDCHAR
STARTCHAR Iacute
ENCODING 205
SWIDTH 445 0
DWIDTH 9 0
BBX 13 22 -2 -2
BITMAP
00000014000000
0000006FC30000
000000BFE10000
000001FF700000
000003DD000000
00000002000000
28CBBBBBBAA820
0039EFFFFA4000
00002FFF800000
00001FFF700000
00000FFF700000
00000FFF600000
00000EFF600000
00000EFF600000
00000DFF500000
00000CFF500000
00000CFF400000
00000BFF400000
00000BFF300000
00000AFF300000
00039EFFD71000
038BBBBBBBB610
ENDCHAR
STARTCHAR Icircumflex
ENCODING 206
SWIDTH 445 0
DWIDTH 9 0
BBX 13 23 -2 -2
BITMAP
00000052000000
000004FC000000
00002EFF900000
0001CFDFF60000
0008E702CE1000
00002000020000
00000000000000
28CBBBBBBAA820
0039EFFFFA4000
00002FFF800000
00001FFF700000
00000FFF700000
00000FFF600000
00000EFF600000
00000EFF600000
00000DFF500000
00000CFF500000
00000CFF400000
00000BFF400000
00000BFF300000
00000AFF300000
00039EFFD71000
038BBBBBBBB610
ENDCHAR
STARTCHAR Idieresis
ENCODING 207
SWIDTH 445 0
DWIDTH 9 0
BBX 13 20 -2 -2
BITMAP
0001CB06D50000
0004FF1AFA0000
00006502720000
00000000000000
28CBBBBBBAA820
0039EFFFFA4000
00002FFF800000
00001FFF700000
00000FFF700000
00000FFF600000
00000EFF600000
00000EFF600000
00000DFF500000
00000CFF500000
00000CFF400000
00000BFF400000
00000BFF300000
00000AFF300000
00039EFFD71000
038BBBBBBBB610
ENDCHAR
STARTCHAR Eth
ENCODING 208
SWIDTH 1000 0
DWIDTH 20 0
BBX 20 15 0 -1
BITMAP
36655555555541000000
03AFFFFFFFFFFFC60000
00018EFFFD99AEFFC200
000006FFF90001AFFD10
000004FFF800001DFF90
000003FFF7000008FFE0
009888FFF9442006FFF2
00FFFFFFFFFFA005FFF3
01EEDDFFFDBB6006FFF1
000000DFF4000008FFD0
000000CFF300000DFF80
000000CFF200009FFD10
000004EFFA99ADFFD300
0003BFFFFFFFFFC71000
00598765443320000000
ENDCHAR
STARTCHAR Ntilde
ENCODING 209
SWIDTH 840 0
DWIDTH 17 0
BBX 21 21 -2 -1
BITMAP
0000000156201400000000
00000008FFFCE800000000
00000008EEFFF800000000
0000000520597200000000
0000000000000000000000
1332222111566677788840
05CFFFFFD117DFFFFFA200
0004BFFFFB0004BFC20000
00000EFFFF80004FA00000
00000EFFFFF5004FA00000
00000EF9FFFE303FA00000
00000EF1BFFFD13F900000
00000EF11DFFFB3F900000
00000EF102EFFFBF900000
00000EF2003FFFFF800000
00000EF20005FFFF800000
00000EF300007FFF800000
00002EF6000009FF800000
003AFFFFE83000BF700000
29DDDDDDDDDB511D700000
0000000000000002500000
ENDCHAR
STARTCHAR Ograve
ENCODING 210
SWIDTH 808 0
DWIDTH 16 0
BBX 16 20 0 -1
BITMAP
0000000170000000
0000007EF4000000
0000004FF9000000
0000000BFE000000
00000003FD200000
0000000030000000
0000002454100000
0004AEFFFFFC5000
009FFFEBACFFFB10
08FFFB20006FFFA0
2FFFC0000009FFF4
7FFF40000003FFF9
8FFF20000000FFFB
8FFF30000000FFFB
6FFF50000003FFF8
1EFFC0000009FFF2
05FFFA00008FFF70
006EFFEBBEFFF700
00028DFFFFD92000
0000002331000000
ENDCHAR
STARTCHAR Oacute
ENCODING 211
SWIDTH 808 0
DWIDTH 16 0
BBX 16 20 0 -1
BITMAP
0000000041000000
00000001EE700000
00000005FF500000
0000000AFC000000
0000000BF4000000
0000000020000000
0000002454100000
0004AEFFFFFC5000
009FFFEBACFFFB10
08FFFB20006FFFA0
2FFFC0000009FFF4
7FFF40000003FFF9
8FFF20000000FFFB
8FFF30000000FFFB
6FFF50000003FFF8
1EFFC0000009FFF2
05FFFA00008FFF70
006EFFEBBEFFF700
00028DFFFFD92000
0000002331000000
ENDCHAR
STARTCHAR Ocircumflex
ENCODING 212
SWIDTH 808 0
DWIDTH 16 0
BBX 16 20 0 -1
BITMAP
0000000240000000
0000001DF3000000
000000AFFE100000
000007FEDFB00000
00002FB218F60000
0000020000200000
0000002454100000
0004AEFFFFFC5000
009FFFEBACFFFB10
08FFFB20006FFFA0
2FFFC0000009FFF4
7FFF40000003FFF9
8FFF20000000FFFB
8FFF30000000FFFB
6FFF50000003FFF8
1EFFC0000009FFF2
05FFFA00008FFF70
006EFFEBBEFFF700
00028DFFFFD92000
0000002331000000
ENDCHAR
STARTCHAR Otilde
ENCODING 213
SWIDTH 808 0
DWIDTH 16 0
BBX 16 19 0 -1
BITMAP
0000015620140000
000008FFFCE80000
000008EEFFF80000
0000052059720000
0000000000000000
0000002454100000
0004AEFFFFFC5000
009FFFEBACFFFB10
08FFFB20006FFFA0
2FFFC0000009FFF4
7FFF40000003FFF9
8FFF20000000FFFB
8FFF30000000FFFB
6FFF50000003FFF8
1EFFC0000009FFF2
05FFFA00008FFF70
006EFFEBBEFFF700
00028DFFFFD92000
0000002331000000
ENDCHAR
STARTCHAR Odieresis
ENCODING 214
SWIDTH 808 0
DWIDTH 16 0
BBX 16 17 0 -1
BITMAP
000008D32CA00000
00000DF74FF10000
0000037106400000
0000002454100000
0004AEFFFFFC5000
009FFFEBACFFFB10
08FFFB20006FFFA0
2FFFC0000009FFF4
7FFF40000003FFF9
8FFF20000000FFFB
8FFF30000000FFFB
6FFF50000003FFF8
1EFFC0000009FFF2
05FFFA00008FFF70
006EFFEBBEFFF700
00028DFFFFD92000
0000002331000000
ENDCHAR
STARTCHAR multiply
ENCODING 215
SWIDTH 556 0
DWIDTH 11 0
BBX 11 12 0 1
BITMAP
001000000000
03E50001C300
3EFF401CFE30
6FFFE4CFFFA0
05FFFFFFFA00
004FFFFF9000
000CFFFE1000
00AFFFFFC100
0AFFF7EFFB00
7FFE402DFF90
1CE40002DC10
023000001100
ENDCHAR
STARTCHAR Oslash
ENCODING 216
SWIDTH 808 0
DWIDTH 16 0
BBX 16 18 0 -3
BITMAP
0000000000040000
00000000003FC300
0000002454BFFC00
0004AEFFFFFFF300
009FFFEBAFFFFA10
08FFFB206FFFFFA0
2FFFC001EFFCFFF4
7FFF5007FFA2FFF9
8FFF201EFE10FFFB
8FFF309FF600FFFB
6FFF62FFB003FFF8
1EFFCBFF2009FFF2
05FFFFF7007FFF70
006EFFFBBEFFF700
0006FFFFFFD92000
000DF92331000000
002CE10000000000
0000200000000000
ENDCHAR
STARTCHAR Ugrave
ENCODING 217
SWIDTH 725 0
DWIDTH 15 0
BBX 18 21 -2 -1
BITMAP
000000001700000000
00000006EF40000000
00000004FF90000000
00000000BFE0000000
000000003FD2000000
000000000300000000
000000000022221111
28BA98754318FFFFD5
003BFFFD71002DF900
0005FFF400000CF600
0006FFF400000BF500
0006FFF400000AF400
0007FFF400000AF400
0007FFF3000009F300
0007FFF3000008F300
0007FFF4000009F200
0005FFF700000CE000
0001EFFE20006FA000
00006FFFE87BFE2000
000006EFFFFFC30000
000000157863000000
ENDCHAR
STARTCHAR Uacute
ENCODING 218
SWIDTH 725 0
DWIDTH 15 0
BBX 18 21 -2 -1
BITMAP
000000000410000000
000000001EE7000000
000000005FF6000000
00000000AFC0000000
00000000BF40000000
000000000200000000
000000000022221111
28BA98754318FFFFD5
003BFFFD71002DF900
0005FFF400000CF600
0006FFF400000BF500
0006FFF400000AF400
0007FFF400000AF400
0007FFF3000009F300
0007FFF3000008F300
0007FFF4000009F200
0005FFF700000CE000
0001EFFE20006FA000
00006FFFE87BFE2000
000006EFFFFFC30000
000000157863000000
ENDCHAR
STARTCHAR Ucircumflex
ENCODING 219
SWIDTH 725 0
DWIDTH 15 0
BBX 18 21 -2 -1
BITMAP
000000000600000000
000000007F90000000
00000004FFF6000000
0000002EFDFF300000
000000BE504DD00000
000000110001200000
000000000022221111
28BA98754318FFFFD5
003BFFFD71002DF900
0005FFF400000CF600
0006FFF400000BF500
0006FFF400000AF400
0007FFF400000AF400
0007FFF3000009F300
0007FFF3000008F300
0007FFF4000009F200
0005FFF700000CE000
0001EFFE20006FA000
00006FFFE87BFE2000
000006EFFFFFC30000
000000157863000000
ENDCHAR
STARTCHAR Udieresis
ENCODING 220
SWIDTH 725 0
DWIDTH 15 0
BBX 18 18 -2 -1
BITMAP
0000000AC13D700000
0000001FF47FC00000
000000056017300000
000000000022221111
28BA98754318FFFFD5
003BFFFD71002DF900
0005FFF400000CF600
0006FFF400000BF500
0006FFF400000AF400
0007FFF400000AF400
0007FFF3000009F300
0007FFF3000008F300
0007FFF4000009F200
0005FFF700000CE000
0001EFFE20006FA000
00006FFFE87BFE2000
000006EFFFFFC30000
000000157863000000
ENDCHAR
STARTCHAR Yacute
ENCODING 221
SWIDTH 848 0
DWIDTH 17 0
BBX 21 21 -3 -2
BITMAP
0000000000002300000000
0000000000009FB1000000
000000000000EFC0000000
000000000004FF30000000
000000000005EA00000000
0000000000001100000000
17AABCDDEE600000000000
0039EFFFE20017AA998760
000006FFF900006EFFC500
0000007FFF60001CD30000
00000009FFF401CE200000
00000000BFFE3CE3000000
000000001CFFFF40000000
0000000001DFF500000000
00000000009FF300000000
0000000000AFF500000000
0000000000BFF600000000
0000000000BFF800000000
0000000001DFFB20000000
000000028EFFFFFC610000
0000001666655555551000
ENDCHAR
STARTCHAR Thorn
ENCODING 222
SWIDTH 745 0
DWIDTH 15 0
BBX 18 14 -2 -1
BITMAP
28CBBAAA9985000000
003AFFFFE930000000
00004FFF3100000000
00002FFFFFFEB83000
00002FFFCBBDFFFC20
00002FFF000016EFD0
00002FFF100000AFF1
00001FFF100017FFA0
00001FFFA9ADFFD700
00001FFFFFDB840000
00001FFF7000000000
00005FFF9100000000
004CFFFFFE92000000
069999888887300000
ENDCHAR
STARTCHAR germandbls
ENCODING 223
SWIDTH 986 0
DWIDTH 20 0
BBX 21 27 -1 -8
BITMAP
0000000167730000000000
0000007FFFFFC300000000
000007FFB55BFE30000000
00002FFA0000CFC0000000
00007FF300005FF3000000
0000BFE000002FF7000000
0000EFD000000FF8000000
0000FFE000003FF6000000
0011FFF00000BFE1000000
0BFFFFF20006FF80000000
08BBEFF4001EFE10000000
0000AFF6007FF800000000
00008FF800AFF500000000
00006FF900AFFA00000000
00004FFB006FFFB4000000
00002FFD000BFFFFD71000
00000FFF00118FFFFFF800
00000DFF1027029EFFFF80
00000BFF303F40017EFFD0
00000AFF504FE60005FFC0
000008FF605FFFDAAEFF40
140007FF706B4AEFFE9300
CFC007FF60620001100000
EFE009FF30000000000000
BFC01EFC00000000000000
2EFCDFE300000000000000
02AEEA2000000000000000
ENDCHAR
STARTCHAR agrave
ENCODING 224
SWIDTH 572 0
DWIDTH 11 0
BBX 13 19 0 -1
BITMAP
00000017000000
000006EF400000
000004FF900000
000000BFE00000
0000003FD20000
00000003000000
00000110000000
0039EFFD700000
05FFA7AFFA0000
0EFD000BFF3000
0FFF1007FF6000
06B60006FF7000
029DEDCDFF6000
3EFE867DFF5000
8FF8000CFF3000
7FFC213EFF2000
1AFFFFFFFF1000
0025778FFFD710
00000026654420
ENDCHAR
STARTCHAR aacute
ENCODING 225
SWIDTH 572 0
DWIDTH 11 0
BBX 13 19 0 -1
BITMAP
00000023000000
0000009FB10000
000000EFC00000
000004FF400000
000005EB000000
00000011000000
00000110000000
0039EFFD700000
05FFA7AFFA0000
0EFD000BFF3000
0FFF1007FF6000
06B60006FF7000
029DEDCDFF6000
3EFE867DFF5000
8FF8000CFF3000
7FFC213EFF2000
1AFFFFFFFF1000
0025778FFFD710
00000026654420
ENDCHAR
STARTCHAR acircumflex
ENCODING 226
SWIDTH 572 0
DWIDTH 11 0
BBX 13 19 0 -1
BITMAP
00000060000000
000007F9000000
00004FFF600000
0002EFDFF30000
000BE504DC0000
00011000120000
00000110000000
0039EFFD700000
05FFA7AFFA0000
0EFD000BFF3000
0FFF1007FF6000
06B60006FF7000
029DEDCDFF6000
3EFE867DFF5000
8FF8000CFF3000
7FFC213EFF2000
1AFFFFFFFF1000
0025778FFFD710
00000026654420
ENDCHAR
STARTCHAR atilde
ENCODING 227
SWIDTH 572 0
DWIDTH 11 0
BBX 13 17 0 -1
BITMAP
00004730050000
0005FFFDDB0000
0005FDFFFB0000
00043048830000
00000110000000
0039EFFD700000
05FFA7AFFA0000
0EFD000BFF3000
0FFF1007FF6000
06B60006FF7000
029DEDCDFF6000
3EFE867DFF5000
8FF8000CFF3000
7FFC213EFF2000
1AFFFFFFFF1000
0025778FFFD710
00000026654420
ENDCHAR
STARTCHAR adieresis
ENCODING 228
SWIDTH 572 0
DWIDTH 11 0
BBX 13 16 0 -1
BITMAP
0008D31CA00000
000DF74FF10000
00037106500000
00000110000000
0039EFFD700000
05FFA7AFFA0000
0EFD000BFF3000
0FFF1007FF6000
06B60006FF7000
029DEDCDFF6000
3EFE867DFF5000
8FF8000CFF3000
7FFC213EFF2000
1AFFFFFFFF1000
0025778FFFD710
00000026654420
ENDCHAR
STARTCHAR aring
ENCODING 229
SWIDTH 572 0
DWIDTH 11 0
BBX 13 16 0 -1
BITMAP
000008EB100000
00005F8E900000
00006E3CA00000
00001DFE300000
003AEFFE700000
05FFA7AFFA0000
0EFD000BFF2000
0FFF1007FF6000
06B60006FF7000
029DEDCDFF6000
3EFE867DFF5000
8FF8000CFF3000
7FFC213EFF2000
1AFFFFFFFF1000
0025778FFFD710
00000026654420
ENDCHAR
STARTCHAR ae
ENCODING 230
SWIDTH 1022 0
DWIDTH 20 0
BBX 21 13 0 -1
BITMAP
0000010000000000000000
006CFFFB30000355300000
0AFE87DFF407EFFFFC3000
5FF7002FFCAFFC78EFE200
6FFA000DFFFFC0003FFB00
19A2000CFFFF83333DFF10
05BDEDCEFFFFFFFFFFFF30
8FFC668FFFFFA555544410
EFF3003FFEFFD200003400
DFF8127FFA7FFFB9ADA000
4DFFFFFFF904BFFFC60000
003676CFFFB40010000000
0000005655441000000000
ENDCHAR
STARTCHAR ccedilla
ENCODING 231
SWIDTH 589 0
DWIDTH 12 0
BBX 12 17 0 -7
BITMAP
00017BDC9200
005EFFDFFF60
04FFE301EFF3
0DFF6000FFF5
3FFF10008EC1
5FFF00000000
5FFF10000005
2FFF70000087
0AFFF7102AF2
01CFFFFEFF80
0008EFFFD600
00001EB20000
00008FD60000
000069DF4000
0000213F7000
0000CEDF4000
00005CD70000
ENDCHAR
STARTCHAR egrave
ENCODING 232
SWIDTH 593 0
DWIDTH 12 0
BBX 12 18 0 -2
BITMAP
000000260000
000009FF1000
000007FF6000
000000DFC000
0000005FC000
000000030000
000002320000
0018EFFFC400
01CFFECFFF40
0AFF9003EFE1
2FFE10008FF6
5FFE9998BFF9
5FFFFFFFFFFA
2FFE22111000
0BFF80000270
02DFFDAACE30
0019FFFFA200
000013310000
ENDCHAR
STARTCHAR eacute
ENCODING 233
SWIDTH 593 0
DWIDTH 12 0
BBX 12 18 0 -2
BITMAP
000000320000
000000CF9000
000002FF9000
000007FE1000
000008F70000
000000110000
000002320000
0018EFFFC400
01CFFECFFF40
0AFF9003EFE1
2FFE10008FF6
5FFE9998BFF9
5FFFFFFFFFFA
2FFE22111000
0BFF80000270
02DFFDAACE30
0019FFFFA200
000013310000
ENDCHAR
STARTCHAR ecircumflex
ENCODING 234
SWIDTH 593 0
DWIDTH 12 0
BBX 12 18 0 -2
BITMAP
000000600000
000007F90000
00004FFF6000
0002EFDFF300
000BE504DC00
000110001200
000002320000
0018EFFFC400
01CFFECFFF40
0AFF9003EFE1
2FFE10008FF6
5FFE9998BFF9
5FFFFFFFFFFA
2FFE22111000
0BFF80000270
02DFFDAACE30
0019FFFFA200
000013310000
ENDCHAR
STARTCHAR edieresis
ENCODING 235
SWIDTH 593 0
DWIDTH 12 0
BBX 12 15 0 -2
BITMAP
0001CB05D500
0003FF2AFA00
000065027200
000002320000
0018EFFFC400
01CFFECFFF40
0AFF9003EFE1
2FFE10008FF6
5FFE9998BFF9
5FFFFFFFFFFA
2FFE22111000
0BFF80000270
02DFFDAACE30
0019FFFFA200
000013310000
ENDCHAR
STARTCHAR igrave
ENCODING 236
SWIDTH 393 0
DWIDTH 8 0
BBX 10 18 -1 0
BITMAP
0000260000
0009FF1000
0007FF6000
0000DFB000
00006FC000
0000030000
0000000000
1566666300
029FFFF700
0002EFF600
0000CFF500
0000CFF400
0000BFF300
0000AFF200
0000AFF100
00009FE000
0019FFF910
03CEEEFFD4
ENDCHAR
STARTCHAR iacute
ENCODING 237
SWIDTH 393 0
DWIDTH 8 0
BBX 10 18 -1 0
BITMAP
0000023000
000009FB10
00000EFC00
00004FF400
00005EA000
0000011000
0000000000
1566666300
029FFFF700
0002EFF600
0000CFF500
0000CFF400
0000BFF300
0000AFF200
0000AFF100
00009FE000
0019FFF910
03CEEEFFD4
ENDCHAR
STARTCHAR icircumflex
ENCODING 238
SWIDTH 393 0
DWIDTH 8 0
BBX 10 18 -1 0
BITMAP
0000060000
00007F9000
0004FFF600
002EFDFF30
00BE504DD0
0011000120
0000000000
1566666300
029FFFF700
0002EFF600
0000CFF500
0000CFF400
0000BFF300
0000AFF200
0000AFF100
00009FE000
0019FFF910
03CEEEFFD4
ENDCHAR
STARTCHAR idieresis
ENCODING 239
SWIDTH 393 0
DWIDTH 8 0
BBX 10 15 -1 0
BITMAP
000AC23D80
001FF47FD0
0005601730
0000000000
1566666300
029FFFF700
0002EFF600
0000CFF500
0000CFF400
0000BFF300
0000AFF200
0000AFF100
00009FE000
0019FFF910
03CEEEFFD4
ENDCHAR
STARTCHAR eth
ENCODING 240
SWIDTH 672 0
DWIDTH 13 0
BBX 15 19 -1 -2
BITMAP
0001000000000000
000397100005A000
000008E702BFF400
0000006FCFFE5000
0000004DFFC10000
000019FFFFE30000
00009FFC3DFE1000
00001C9005FFA000
0000000000DFF400
000058ABBACFFA00
005EFFFDEFFFFF10
05FFF81003DFFF50
0EFF7000003FFF60
2FFF1000000CFF60
2FFF2000000CFF40
0EFF6000002FFE00
05FFE40002CFF600
006EFFCBCFFE6000
00016BDEDB720000
ENDCHAR
STARTCHAR ntilde
ENCODING 241
SWIDTH 643 0
DWIDTH 13 0
BBX 17 15 -2 1
BITMAP
000000166102300000
000000BFFFBF500000
000000CEEFFF500000
000000611696100000
000000000000000000
001368BA1687200000
4BFFFFFEFFFFF60000
0026DFFFC9CFFF1000
00008FF9000BFF4000
00006FF60006FF5000
00004FF50005FF4000
00002FF30005FF2000
00018FF91005FF0000
005AAAAA923AFE4000
0000000039BBBBB710
ENDCHAR
STARTCHAR ograve
ENCODING 242
SWIDTH 705 0
DWIDTH 14 0
BBX 14 17 0 -1
BITMAP
00000006200000
000004DF700000
000001EFD00000
0000007FF30000
0000001EE40000
00000003100000
00003678740000
007EFFFFFFE800
0BFFE7214CFFB0
6FFE200001DFF7
BFF80000006FFC
BFF70000005FFD
9FFA0000008FFA
2FFF500004FFF3
04EFFB78BFFE50
0018DFFFFC7100
00000122000000
ENDCHAR
STARTCHAR oacute
ENCODING 243
SWIDTH 705 0
DWIDTH 14 0
BBX 14 17 0 -1
BITMAP
00000005000000
0000003FD50000
0000008FF30000
000000DF900000
000001CF200000
00000002000000
00003678740000
007EFFFFFFE800
0BFFE7214CFFB0
6FFE200001DFF7
BFF80000006FFC
BFF70000005FFD
9FFA0000008FFA
2FFF500004FFF3
04EFFB78BFFE50
0018DFFFFC7100
00000122000000
ENDCHAR
STARTCHAR ocircumflex
ENCODING 244
SWIDTH 705 0
DWIDTH 14 0
BBX 14 17 0 -1
BITMAP
00000016000000
000000AF600000
000007FFF30000
00004FFDFD1000
0000DC306E9000
00002000011000
00003678740000
007EFFFFFFE800
0BFFE7214CFFB0
6FFE200001DFF7
BFF80000006FFC
BFF70000005FFD
9FFA0000008FFA
2FFF500004FFF3
04EFFB78BFFE50
0018DFFFFC7100
00000122000000
ENDCHAR
STARTCHAR otilde
ENCODING 245
SWIDTH 705 0
DWIDTH 14 0
BBX 14 16 0 -1
BITMAP
00001562014000
00008FFFCE8000
00008EEFFF8000
00005205972000
00000000000000
00003678740000
007EFFFFFFE800
0BFFE7214CFFB0
6FFE200001DFF7
BFF80000006FFC
BFF70000005FFD
9FFA0000008FFA
2FFF500004FFF3
04EFFB78BFFE50
0018DFFFFC7100
00000122000000
ENDCHAR
STARTCHAR odieresis
ENCODING 246
SWIDTH 705 0
DWIDTH 14 0
BBX 14 15 0 -1
BITMAP
00003D808D3000
00007FD0EF6000
00001730371000
00000000000000
00003678740000
007EFFFFFFE800
0BFFE7214CFFB0
6FFE200001DFF7
BFF80000006FFC
BFF70000005FFD
9FFA0000008FFA
2FFF500004FFF3
04EFFB78BFFE50
0018DFFFFC7100
00000122000000
ENDCHAR
STARTCHAR divide
ENCODING 247
SWIDTH 504 0
DWIDTH 10 0
BBX 10 13 0 -1
BITMAP
0000351000
0006FFE200
000AFFF500
0003CEA100
2221000000
CFFFFEDDCA
CFFFFFFFFD
9BBAAA9986
0000120000
0007FFB000
000DFFF200
0007FFB000
0000120000
ENDCHAR
STARTCHAR oslash
ENCODING 248
SWIDTH 705 0
DWIDTH 14 0
BBX 14 15 0 -3
BITMAP
0000000004D400
000000000CFF30
000036789FFB00
007EFFFFFFF900
0BFFE729FFFFB0
6FFE202FFDDFF7
BFF800BFF47FFC
BFF704FF905FFD
9FFA0DFE108FFA
2FFFAFF604FFF3
04EFFFE8BFFE50
001CFFFFFC7100
003FF822000000
006FD000000000
00033000000000
ENDCHAR
STARTCHAR ugrave
ENCODING 249
SWIDTH 614 0
DWIDTH 12 0
BBX 16 18 -2 -1
BITMAP
0000000350000000
000000BFD0000000
0000009FF4000000
0000002FF9000000
00000008FA000000
0000000120000000
0000000000000000
3BCCDD6177788800
018EFF6029EFFE00
000BFF40003FFB00
000BFF30003FF900
000BFF20004FF600
000BFF10005FF400
000AFF10006FF200
0008FF6001BFE000
0002EFFB9DFFD000
00004DFFFDAFFE93
00000023306B9630
ENDCHAR
STARTCHAR uacute
ENCODING 250
SWIDTH 614 0
DWIDTH 12 0
BBX 16 17 -2 -1
BITMAP
0000000041000000
00000000EE700000
00000005FF600000
0000000AFD000000
0000000AF5000000
0000000020000000
3BCCDD6177788800
018EFF6029EFFE00
000BFF40003FFB00
000BFF30003FF900
000BFF20004FF600
000BFF10005FF400
000AFF10006FF200
0008FF6001BFE000
0002EFFB9DFFD000
00004DFFFDAFFE93
00000023306B9630
ENDCHAR
STARTCHAR ucircumflex
ENCODING 251
SWIDTH 614 0
DWIDTH 12 0
BBX 16 18 -2 -1
BITMAP
0000000160000000
0000000AF6000000
0000007FFF400000
000004FFDFE10000
00000DC306EA0000
0000020000110000
0000000000000000
3BCCDD6177788800
018EFF6029EFFE00
000BFF40003FFB00
000BFF30003FF900
000BFF20004FF600
000BFF10005FF400
000AFF10006FF200
0008FF6001BFE000
0002EFFB9DFFD000
00004DFFFDAFFE93
00000023306B9630
ENDCHAR
STARTCHAR udieresis
ENCODING 252
SWIDTH 614 0
DWIDTH 12 0
BBX 16 15 -2 -1
BITMAP
000008D31CA00000
00000DF74FF10000
0000037106500000
0000000000000000
3BCCDD6177788800
018EFF6029EFFE00
000BFF40003FFB00
000BFF30003FF900
000BFF20004FF600
000BFF10005FF400
000AFF10006FF200
0008FF6001BFE000
0002EFFB9DFFD000
00004DFFFDAFFE93
00000023306B9630
ENDCHAR
STARTCHAR yacute
ENCODING 253
SWIDTH 655 0
DWIDTH 13 0
BBX 14 26 -1 -9
BITMAP
00000004100000
0000000EE70000
0000005FF60000
000000AFD00000
000000AF500000
00000002000000
75100000000000
1CEA5129BA8652
01DFFE506EFFF7
008FFF2002FFF6
00CFFC0000FFF6
01FFF80000FFF5
04FFF40000FFF5
03FFF70000FFF4
00DFFF9569FFF3
003DFFFFFFFFF3
0000589864FFF2
0000000002FFF1
0000000002FFF1
0000000003FFF0
0049300005FFE0
01FFD00008FFB0
02FFB0000DFF60
00DF80008FFC00
002EFEBDFFD200
00018CEEC71000
ENDCHAR
STARTCHAR thorn
ENCODING 254
SWIDTH 734 0
DWIDTH 15 0
BBX 17 23 -2 -9
BITMAP
29CCCCCC2000000000
005CFFFF3000000000
00006FFF3000000000
00002FFF3000000000
00002FFF3000000000
00002FFF3000000000
00001FFF3000000000
00001FFF5677520000
00000FFFFFFFFFB200
00000FFF8324AFFD10
00000EFF300009FF90
00000EFF300002FFC0
00000EFF300003FFD0
00000DFF300009FF90
00000DFF94238FFE20
00000CFFFFFFFFD300
00000CFF679A950000
00000BFF4000000000
00000BFF4000000000
00000AFF4000000000
00004DFFB400000000
006CFFFFFFC5000000
034332210000000000
ENDCHAR
STARTCHAR ydieresis
ENCODING 255
SWIDTH 655 0
DWIDTH 13 0
BBX 14 24 -1 -9
BITMAP
00008D31CA0000
0000DF74FF1000
00003710650000
00000000000000
75100000000000
1CEA5129BA8652
01DFFE506EFFF7
008FFF2002FFF6
00CFFC0000FFF6
01FFF80000FFF5
04FFF40000FFF5
03FFF70000FFF4
00DFFF9569FFF3
003DFFFFFFFFF3
0000589864FFF2
0000000002FFF1
0000000002FFF1
0000000003FFF0
0049300005FFE0
01FFD00008FFB0
02FFB0000DFF60
00DF80008FFC00
002EFEBDFFD200
00018CEEC71000
ENDCHAR
STARTCHAR dotlessi
ENCODING 305
SWIDTH 393 0
DWIDTH 8 0
BBX 10 11 -1 0
BITMAP
1566666300
029FFFF700
0002EFF600
0000CFF500
0000CFF400
0000BFF300
0000AFF200
0000AFF100
00009FE000
0019FFF910
03CEEEFFD4
ENDCHAR
STARTCHAR Lslash
ENCODING 321
SWIDTH 713 0
DWIDTH 14 0
BBX 17 16 -2 0
BITMAP
28AAAABBBBBA500000
0039EFFFFD71000000
00000EFFD000000000
00000EFFD000000000
00000DFFC050000000
00000CFFEDF5000000
00000BFFFFFC000000
00018EFFFFA4000210
007EFFFFD200000810
007FFEFFB000000D10
001938FFB000004F10
000007FFB00000AF10
000006FFB00001FF10
000008FFC65549FF10
0005DFFFFFFFFFFF10
03ABBA998776554300
ENDCHAR
STARTCHAR lslash
ENCODING 322
SWIDTH 365 0
DWIDTH 7 0
BBX 11 20 -2 -2
BITMAP
112222220000
4AFFFFFA0000
0016FFFA0000
0000DFF90000
0000DFF90000
0000CFF80000
0000BFF83800
0000BFFEFF30
0002CFFFFB30
05BFFFFC4000
0BFFFFF50000
05FCBFF50000
00407FF40000
00006FF40000
00006FF30000
00005FF30000
00005FF20000
00008FF80000
003CFFFFC300
017766544300
ENDCHAR
STARTCHAR OE
ENCODING 338
SWIDTH 1195 0
DWIDTH 24 0
BBX 24 16 0 -1
BITMAP
000000000000000000234561
000000045689ABCDEFFFFFF1
000000015AEFFFFECA988FF1
000002431007FFF900000DF0
003AFFFFFC43FFF8003206F0
06FFF956DFFAFFF800A101D0
3FFF40001DFFFFF802F10070
9FF8000006FFFFF709F10010
BFF5000002FFFFFFFFF10020
BFF5000003FFFFFFFFF00070
8FF9000006FFFFF61BF00390
2EFF30002EFFFFF502E00890
04EFE879EFE5EFF500600D90
0029EFFFD923EFF744445F90
0000012116CFFFFFFFFFFF90
000000026777766666666630
ENDCHAR
STARTCHAR oe
ENCODING 339
SWIDTH 1087 0
DWIDTH 22 0
BBX 22 12 0 -2
BITMAP
0000001100000000000000
004AEFFFD810159BC94000
08FFE97AFFD6EFFFFFFA00
4FFD10004FFFFF724BFF90
AFF400000AFFF80001EFF2
CFF1000008FFF85555CFF7
AFF300000AFFFFFFFFFFF8
4FFB00002EFFF854444332
07FFC668EFFFFC10000260
004BFFFFD82BFFEA89CD20
0000023100007DFFFE9100
0000000000000023200000
ENDCHAR
STARTCHAR Scaron
ENCODING 352
SWIDTH 661 0
DWIDTH 13 0
BBX 13 22 0 -2
BITMAP
00024000150000
0007FA25EE1000
0000AFFFF40000
00001DFF700000
000002EA000000
00000021000000
00000000000060
005BEFFEB607A0
0BFFD99BFFDF80
7FFA00002AFF60
BFF90000007F50
BFFFC730000830
5FFFFFFEA40000
06FFFFFFFFD400
0017CFFFFFFF40
04000149FFFFD0
094000003EFFF0
0AE300000BFFC0
0CFF93238FFF40
0D7CFFFFFFC400
0B003788620000
14000000000000
ENDCHAR
STARTCHAR scaron
ENCODING 353
SWIDTH 533 0
DWIDTH 11 0
BBX 11 20 0 -1
BITMAP
002400015000
007FA25EE100
000BFFFF4000
0001DFF70000
00003EA00000
000002100000
000000000000
0028AA610600
07FFFFFE6D00
5FF6016EFE00
9FF50001DE00
7FFFA4002C00
1CFFFFE92300
01AFFFFFF600
17039EFFFF50
3F40005DFF90
4FF71006FF80
6FFFEBBFFD20
7628CEDC7100
300000000000
ENDCHAR
STARTCHAR Ydieresis
ENCODING 376
SWIDTH 848 0
DWIDTH 17 0
BBX 21 19 -3 -2
BITMAP
0000000008D32CA0000000
000000000DF74FF1000000
0000000003710640000000
0000000000000000000000
17AABCDDEE600000000000
0039EFFFE20017AA998760
000006FFF900006EFFC500
0000007FFF60001CD30000
00000009FFF401CE200000
00000000BFFE3CE3000000
000000001CFFFF40000000
0000000001DFF500000000
00000000009FF300000000
0000000000AFF500000000
0000000000BFF600000000
0000000000BFF800000000
0000000001DFFB20000000
000000028EFFFFFC610000
0000001666655555551000
ENDCHAR
STARTCHAR Zcaron
ENCODING 381
SWIDTH 685 0
DWIDTH 14 0
BBX 15 19 0 0
BITMAP
0000520004200000
0000DE619F900000
00003EFFFC000000
000005FFE2000000
0000008F40000000
0000000300000000
0000001112233310
8EEEFFFFFFFFFC00
5FFDDCCBDFFFE200
1FD00002EFFF4000
0CA0001DFFF70000
087000CFFFA00000
04400AFFFD100400
00107FFFE2005600
0005FFFF5000D500
003FFFF80006F500
02EFFFD3211EF400
1DFFFFFFFFFFF300
5999999AAAAAA100
ENDCHAR
STARTCHAR zcaron
ENCODING 382
SWIDTH 549 0
DWIDTH 11 0
BBX 12 19 0 -1
BITMAP
001500005000
004FC33CF300
0007FFFF7000
0000AFFA0000
00001DC10000
000001100000
000000000000
233445556674
9FFFFFFFFFE2
6FD766AFFF50
3F8002EFF900
0F301DFFC100
0A00AFFE2020
0308FFF60360
005FFFA00A70
02EFFD102F80
1DFFFEBABF90
6BCDEFFFFFA0
000000123440
ENDCHAR
STARTCHAR circumflex
ENCODING 710
SWIDTH 714 0
DWIDTH 14 0
BBX 8 6 4 13
BITMAP
00033000
002EE100
01DFFC00
0AFEEF90
5F911AF3
02000020
ENDCHAR
STARTCHAR caron
ENCODING 711
SWIDTH 714 0
DWIDTH 14 0
BBX 8 6 4 13
BITMAP
15000050
4FC34DF3
08FFFF60
00BFF900
001DC100
00021000
ENDCHAR
STARTCHAR breve
ENCODING 728
SWIDTH 715 0
DWIDTH 14 0
BBX 8 5 4 14
BITMAP
17100170
2FC55DE1
08FFFF50
00AFF700
00032000
ENDCHAR
STARTCHAR dotaccent
ENCODING 729
SWIDTH 708 0
DWIDTH 14 0
BBX 4 3 5 16
BITMAP
0BC1
1FF4
0560
ENDCHAR
STARTCHAR ring
ENCODING 730
SWIDTH 704 0
DWIDTH 14 0
BBX 5 5 5 14
BITMAP
027600
1DEF90
4F28D0
1EDEA0
039710
ENDCHAR
STARTCHAR ogonek
ENCODING 731
SWIDTH 988 0
DWIDTH 20 0
BBX 8 6 6 -3
BITMAP
08500000
5F700000
AF900000
9FFA79B4
2EFFFF91
01565100
ENDCHAR
STARTCHAR tilde
ENCODING 732
SWIDTH 707 0
DWIDTH 14 0
BBX 7 4 4 14
BITMAP
03740050
3FFFDCE0
3FDFFFE0
25038840
ENDCHAR
STARTCHAR hungarumlaut
ENCODING 733
SWIDTH 671 0
DWIDTH 13 0
BBX 7 6 4 14
BITMAP
04104100
1FE6DF80
6FF8FF80
BFC8FE10
BF39F600
02002000
ENDCHAR
STARTCHAR endash
ENCODING 8211
SWIDTH 576 0
DWIDTH 12 0
BBX 10 3 1 6
BITMAP
9CCDDDEEE3
CFFFFFFFF4
ADDEEEFFF4
ENDCHAR
STARTCHAR emdash
ENCODING 8212
SWIDTH 993 0
DWIDTH 20 0
BBX 18 4 1 5
BITMAP
799999AAAAAABBBBB7
CFFFFFFFFFFFFFFFF9
CFFFFFFFFFFFFFFFFA
000111112222233332
ENDCHAR
STARTCHAR quoteleft
ENCODING 8216
SWIDTH 261 0
DWIDTH 5 0
BBX 5 7 0 8
BITMAP
003200
00CFA0
05FFB0
0DFF60
7FFF10
4BFB00
003300
ENDCHAR
STARTCHAR quoteright
ENCODING 8217
SWIDTH 301 0
DWIDTH 6 0
BBX 6 7 0 8
BITMAP
004100
01FE81
05FFF2
0BFF90
1FFE10
3EF700
005100
ENDCHAR
STARTCHAR quotesinglbase
ENCODING 8218
SWIDTH 332 0
DWIDTH 7 0
BBX 6 7 0 -2
BITMAP
004100
01FE81
05FFF2
0BFF90
1FFE10
3EF700
005100
ENDCHAR
STARTCHAR quotedblleft
ENCODING 8220
SWIDTH 477 0
DWIDTH 10 0
BBX 10 7 0 8
BITMAP
0032001400
00CFA07FC2
05FFB1EFF1
0DFF69FFA0
7FFF3FFF50
4BFB29FE10
0033001500
ENDCHAR
STARTCHAR quotedblright
ENCODING 8221
SWIDTH 477 0
DWIDTH 10 0
BBX 10 7 0 8
BITMAP
0130004000
07FC52FE71
0CFFB7FFE1
2FFF3CFF70
7FF92FFE10
8FE24EF600
0240005000
ENDCHAR
STARTCHAR quotedblbase
ENCODING 8222
SWIDTH 477 0
DWIDTH 10 0
BBX 10 7 0 -2
BITMAP
0130004000
07FC52FE71
0CFFB7FFE1
2FFF3CFF70
7FF92FFE10
8FF24EF600
0240015000
ENDCHAR
STARTCHAR dagger
ENCODING 8224
SWIDTH 487 0
DWIDTH 10 0
BBX 10 23 0 -6
BITMAP
0005AB8000
0008FFA000
0008FFA000
0008FFA000
0007FFA000
7EEEFFD982
8FFFFFFFF4
9FFFFFFEE2
2227FF8000
0006FF8000
0006FF8000
0005FF7000
0005FF7000
0005FF7000
0004FF6000
0004FF6000
0004FF6000
0004FF5000
0003FF5000
0003FF5000
0003FF4000
0002FF4000
0002DD3000
ENDCHAR
STARTCHAR daggerdbl
ENCODING 8225
SWIDTH 497 0
DWIDTH 10 0
BBX 10 23 0 -6
BITMAP
0005AB8000
0008FFA000
0008FFA000
0008FFA000
0007FFA000
7EEEFFD982
8FFFFFFFF4
9FFFFFFEE2
2227FF8000
0006FF8120
6ABDFFFFF3
8FFFFFFFF4
5CDEFFFFF5
0005FF7110
0005FF6000
0004FF6000
0004FF6000
0004FF5000
0003FF5000
0003FF5000
0003FF4000
0002FF4000
0002DD3000
ENDCHAR
STARTCHAR bullet
ENCODING 8226
SWIDTH 275 0
DWIDTH 6 0
BBX 6 7 0 4
BITMAP
015300
4EFFA0
CFFFF5
EFFFF7
AFFFF3
2BFE60
001000
ENDCHAR
STARTCHAR ellipsis
ENCODING 8230
SWIDTH 787 0
DWIDTH 16 0
BBX 16 4 0 -2
BITMAP
1794003981006950
9FFF21EFFB06FFF5
AFFF31FFFC07FFF6
19B6004AA3008B80
ENDCHAR
STARTCHAR perthousand
ENCODING 8240
SWIDTH 888 0
DWIDTH 18 0
BBX 19 17 0 -1
BITMAP
00000000451000000000
05994000BFF200000000
7FFEF702FFB000000000
DF44FD08FF5000000000
EF33FE0EFD0000000000
8FEEF75FF70000000000
06BA60BFE10000000000
000002FF900000000000
000008FF200000000000
00000EFA000000000000
00005FF4013100131000
0000CFC0AFFF78FFF900
0002FF66FD6EFFE6DF50
0009FE09F70BFFA09F80
000EF806FD7EFFE7DF50
006FF1009FFE67FFF800
00399000013000131000
ENDCHAR
STARTCHAR guilsinglleft
ENCODING 8249
SWIDTH 234 0
DWIDTH 5 0
BBX 5 11 0 -1
BITMAP
000810
004F50
01EE10
0BF900
7FF200
BFE000
3FF500
07FC00
00BF30
001D40
000300
ENDCHAR
STARTCHAR guilsinglright
ENCODING 8250
SWIDTH 223 0
DWIDTH 4 0
BBX 5 11 0 -1
BITMAP
540000
AD1000
5FA000
0DF600
07FE30
04FF60
0AFC00
2FE200
8F6000
9A0000
210000
ENDCHAR
STARTCHAR fraction
ENCODING 8260
SWIDTH 600 0
DWIDTH 12 0
BBX 14 20 -1 -3
BITMAP
00000000006300
0000000002EF81
000000000AFFF6
000000004FFFC0
00000000CFFF30
00000006FFF900
0000001EFFE100
0000008FFF5000
000002FFFB0000
00000BFFE20000
00004FFF700000
0000DFFD000000
0007FFF4000000
001EFF90000000
009FFE10000000
03FFF600000000
0BFFB000000000
5FFF3000000000
19F80000000000
00310000000000
ENDCHAR
STARTCHAR Euro
ENCODING 8364
SWIDTH 590 0
DWIDTH 12 0
BBX 13 14 -1 0
BITMAP
00000000100000
000005CFFE8100
00009FFA9DFC10
0008FF7003FF90
001FFC0004FFB0
6BCFFC87508B30
9FFFFFFFE00000
22AFF711100000
7EFFFFFFF70040
367FFFA9A802B0
000AFFD4016E70
0001CFFFFFFB00
000017EFFD7000
00000001100000
ENDCHAR
STARTCHAR trademark
ENCODING 8482
SWIDTH 624 0
DWIDTH 12 0
BBX 13 9 0 6
BITMAP
01800000000000
06900000000000
9FB61000000000
5FA72000000000
2F528CCC97B600
3F400CA4EA7E00
4F210A60C42E00
3F6A3C91C37E30
0AD60015860120
ENDCHAR
STARTCHAR minus
ENCODING 8722
SWIDTH 549 0
DWIDTH 11 0
BBX 11 4 0 5
BITMAP
7A9887655420
BFFFFFFFFFB0
BFFFFFFFFFA0
ACBBAA998850
ENDCHAR
STARTCHAR fi
ENCODING 64257
SWIDTH 757 0
DWIDTH 15 0
BBX 17 28 -1 -8
BITMAP
000000002310000000
0000008EFFFC400000
00000AFE99EFF70000
00006FF5002EFF3000
0000CFE0000AFF8000
0001FFC0003FFFB000
0002FFC0003FFFA000
0003FFC00008EC2000
0002FFD00000000000
0011FFF11122222000
0BFFFFFFFFFFFFC000
08BBEFFCBBBEFFA000
0000BFF6000AFF9000
00009FF80009FF8000
00007FF90007FF7000
00005FFB0006FF6000
00003FFD0005FF5000
00002FFF0004FF3000
00000FFF105DFFC200
00000DFF49EEEFFE60
00000BFF5000000010
000009FF6000000000
030007FF7000000000
BFC007FF6000000000
EFE009FF3000000000
BFB01DFC0000000000
2EFCDFE30000000000
02AEEA300000000000
ENDCHAR
STARTCHAR fl
ENCODING 64258
SWIDTH 776 0
DWIDTH 16 0
BBX 18 28 -1 -8
BITMAP
000000013420000000
0000008EFFFD500000
00000AFE76DFF60000
00005FF4003FFF2000
0000CFE0000BFF7000
0001FFC00008FFB000
0002FFC00007FFD000
0003FFC00006FFE000
0002FFD00006FFE000
0011FFF11105FFD000
0BFFFFFFFF64FFD000
08BBEFFCBB54FFD000
0000BFF60003FFC000
00009FF80002FFC000
00007FF90002FFB000
00005FFB0001FFA000
00003FFD0000FFA000
00002FFF0000FF9000
00000FFF1000EF8000
00000DFF3003EFC200
00000BFF518FFFFE70
000009FF6676655431
030007FF7000000000
BFC007FF6000000000
EFE009FF3000000000
BFB01DFC0000000000
2EFCDFE30000000000
02AEEA300000000000
ENDCHAR
STARTCHAR .notdef
ENCODING -1
SWIDTH 320 0
DWIDTH 6 0
BBX 1 1 0 0
BITMAP
00
ENDCHAR
ENDFONT
